<?xml version="1.0" encoding="UTF-8"?>
<svg version="1.1" xmlns="http://www.w3.org/2000/svg" width="150" height="150">
<path d="M0 0 C1.36125 0.30744141 1.36125 0.30744141 2.75 0.62109375 C13.38355819 3.29609823 22.38824959 10.36063869 28.04052734 19.72363281 C34.97935473 31.8086284 40.46072764 44.20583434 37.0859375 58.40625 C36.09242482 62.03762714 34.92402272 65.59755123 33.66113281 69.14355469 C33.09490029 70.73352223 32.57047505 72.33827197 32.0546875 73.9453125 C27.38387705 87.36863261 15.95252512 97.60500702 3.44165039 103.69238281 C-11.43495358 110.48331213 -24.7819059 110.36601731 -40 105 C-43.73995365 103.46835639 -47.38344641 101.80214704 -51 100 C-51.68191406 99.68289062 -52.36382812 99.36578125 -53.06640625 99.0390625 C-65.10961727 92.56735719 -72.48718031 78.76980676 -76.3125 66.125 C-78.81415698 54.56972727 -76.27185568 44.44606225 -71.5625 33.9375 C-71.26279297 33.25623047 -70.96308594 32.57496094 -70.65429688 31.87304688 C-64.00263644 16.85270303 -54.87601412 7.25090514 -39.79296875 0.58203125 C-37.21019561 -0.3757039 -34.64856694 -1.24583179 -32 -2 C-31.3709375 -2.19078125 -30.741875 -2.3815625 -30.09375 -2.578125 C-20.01301851 -4.60931717 -9.77092641 -2.52493892 0 0 Z " fill="#2D4A60" transform="translate(90,20)"/>
<path d="M0 0 C1.36125 0.30744141 1.36125 0.30744141 2.75 0.62109375 C13.38355819 3.29609823 22.38824959 10.36063869 28.04052734 19.72363281 C34.97935473 31.8086284 40.46072764 44.20583434 37.0859375 58.40625 C36.09242482 62.03762714 34.92402272 65.59755123 33.66113281 69.14355469 C33.09490029 70.73352223 32.57047505 72.33827197 32.0546875 73.9453125 C27.38387705 87.36863261 15.95252512 97.60500702 3.44165039 103.69238281 C-11.43495358 110.48331213 -24.7819059 110.36601731 -40 105 C-43.73995365 103.46835639 -47.38344641 101.80214704 -51 100 C-51.68191406 99.68289062 -52.36382812 99.36578125 -53.06640625 99.0390625 C-65.10961727 92.56735719 -72.48718031 78.76980676 -76.3125 66.125 C-78.81415698 54.56972727 -76.27185568 44.44606225 -71.5625 33.9375 C-71.26279297 33.25623047 -70.96308594 32.57496094 -70.65429688 31.87304688 C-64.00263644 16.85270303 -54.87601412 7.25090514 -39.79296875 0.58203125 C-37.21019561 -0.3757039 -34.64856694 -1.24583179 -32 -2 C-31.3709375 -2.19078125 -30.741875 -2.3815625 -30.09375 -2.578125 C-20.01301851 -4.60931717 -9.77092641 -2.52493892 0 0 Z M-57 21 C-57.928125 21.763125 -58.85625 22.52625 -59.8125 23.3125 C-67.703912 33.00766331 -68.78305418 45.0351721 -68 57 C-66.56677113 66.73017764 -61.18512905 75.77620398 -53.5625 81.9375 C-41.4012083 90.57678218 -29.74312598 90.86493279 -15.2421875 89.796875 C-3.34571949 87.77754833 7.65862515 78.69770223 14.75 69.3125 C21.6847223 58.74379278 23.62532012 47.41732442 22 35 C20.00757974 26.65674015 15.81434203 21.04067585 9.79296875 15.05859375 C8 13 8 13 8 10 C8.3062434 8.66018514 8.63451555 7.32488113 9 6 C8.34 6 7.68 6 7 6 C6.67 7.32 6.34 8.64 6 10 C5.071875 9.38125 4.14375 8.7625 3.1875 8.125 C-17.31144303 -3.43640387 -41.72238872 6.00426346 -57 21 Z " fill="#9E8654" transform="translate(90,20)"/>
<path d="M0 0 C0.06058594 1.134375 0.12117188 2.26875 0.18359375 3.4375 C0.26808494 4.95834135 0.35272851 6.47917425 0.4375 8 C0.47681641 8.74378906 0.51613281 9.48757812 0.55664062 10.25390625 C0.83661727 15.20733918 1.33510571 20.08313469 2 25 C2.52464844 25.14695312 3.04929688 25.29390625 3.58984375 25.4453125 C9.42704474 27.13528417 15.19067305 29.02767289 20.9375 31 C21.68314209 31.2489502 22.42878418 31.49790039 23.19702148 31.75439453 C26.85981845 33.02888262 29.40308711 34.12728668 32 37 C31.195625 37.45375 30.39125 37.9075 29.5625 38.375 C26.91143428 39.74725665 26.91143428 39.74725665 26 42 C25.34128906 41.95488281 24.68257813 41.90976563 24.00390625 41.86328125 C17.64969341 42.1524847 11.71455728 43.8900291 6.67919922 47.84130859 C0.76611374 55.44286454 1.41575368 69.6957193 1 79 C-2.68779665 76.67575841 -5.66892313 74.54537127 -8.375 71.125 C-13.43955532 65.12502588 -13.43955532 65.12502588 -20 61 C-26.36290804 60.53891971 -32.0389098 61.87103921 -38 64 C-41.375 64.125 -41.375 64.125 -44 64 C-44.47716674 57.30451755 -43.12853676 53.15146562 -40.0625 47.25 C-39.3211659 45.77757475 -38.58277599 44.30366264 -37.84765625 42.828125 C-37.51773682 42.1877832 -37.18781738 41.54744141 -36.84790039 40.88769531 C-35.57482266 38.05342032 -34.68144384 35.96863298 -35.671875 32.95703125 C-36.02765625 32.24933594 -36.3834375 31.54164062 -36.75 30.8125 C-38.90345353 26.31118395 -40.51506891 21.75852919 -42 17 C-40.02 17 -38.04 17 -36 17 C-36 16.34 -36 15.68 -36 15 C-35.34 15 -34.68 15 -34 15 C-33.979375 14.278125 -33.95875 13.55625 -33.9375 12.8125 C-32.54501546 8.63504639 -29.64412066 7.10736515 -26 5 C-24.82050781 4.29423828 -24.82050781 4.29423828 -23.6171875 3.57421875 C-15.66624599 -0.63859354 -8.79542982 -0.53413541 0 0 Z " fill="#8F693D" transform="translate(78,28)"/>
<path d="M0 0 C0.93070312 0.22816406 1.86140625 0.45632812 2.8203125 0.69140625 C8.38518694 2.18047816 13.64095008 4.11668396 18 8 C19.125 10.75 19.125 10.75 20 14 C20.93651788 15.52699103 21.92057593 17.02533638 22.9375 18.5 C28.71499683 26.93430195 31.43566572 34.76185559 31 45 C30.34 44.67 29.68 44.34 29 44 C28.70202113 42.28135422 28.48901331 40.54783218 28.3125 38.8125 C27.51708628 33.4321405 25.93628369 29.11364942 23.5 24.3125 C23.19102783 23.70059814 22.88205566 23.08869629 22.5637207 22.45825195 C20.91036291 19.13381475 20.91036291 19.13381475 18 17 C18 17.66 18 18.32 18 19 C18.66 19 19.32 19 20 19 C20.12117188 19.6290625 20.24234375 20.258125 20.3671875 20.90625 C21.15834966 24.94726287 21.95826345 28.9247634 23.125 32.875 C25.67245395 43.14699175 23.80530825 53.26452159 20 63 C19.01 63.495 19.01 63.495 18 64 C18.31049726 62.56206608 18.6234776 61.1246682 18.9375 59.6875 C19.11152344 58.88699219 19.28554687 58.08648437 19.46484375 57.26171875 C20 55 20 55 21 52 C21.90358678 40.13719646 21.54540056 29.76946891 13.6640625 20.1484375 C12.08014691 18.41462454 10.45895189 16.71370587 8.79296875 15.05859375 C7 13 7 13 7 10 C8 7.8125 8 7.8125 9 6 C8.34 6 7.68 6 7 6 C6.67 7.32 6.34 8.64 6 10 C5.20722656 9.55527344 5.20722656 9.55527344 4.3984375 9.1015625 C-7.08016233 3.82963228 -23.02267396 2.73269107 -35 7 C-43.77702163 10.53236205 -50.32937898 15.35250072 -57 22 C-57.86109375 22.78632812 -58.7221875 23.57265625 -59.609375 24.3828125 C-66.23697625 31.63851976 -67.67831229 41.81384774 -67.45068359 51.30664062 C-66.92053283 61.60814841 -63.57169423 69.99381281 -57 78 C-44.80564678 88.59287962 -33.41162749 89.59921928 -18 89 C-5.24899324 88.06083236 5.46970062 78.87151135 14 70 C12.30429976 75.39626153 9.15667036 77.57743624 4.80078125 80.9375 C3.90939453 81.9584375 3.90939453 81.9584375 3 83 C3.11472621 85.70975068 3.11472621 85.70975068 4 88 C8.82419514 84.86427316 13.42284316 81.4851448 18 78 C14.76614162 86.10302014 5.00458479 91.53971022 -2.61328125 95.0078125 C-3.40089844 95.33523437 -4.18851562 95.66265625 -5 96 C-6.07314453 96.46019531 -6.07314453 96.46019531 -7.16796875 96.9296875 C-13.60572857 99.39221858 -20.16337935 99.69356723 -27 100 C-26.67 99.34 -26.34 98.68 -26 98 C-23.51135657 97.42800133 -21.07913165 96.96558088 -18.5625 96.5625 C-12.21050343 95.46906538 -6.11617982 94.0730321 0 92 C0 90.02 0 88.04 0 86 C-4.01998993 87.30649673 -7.95500574 88.74024189 -11.875 90.31640625 C-23.32075325 93.99840408 -36.13490409 92.83045196 -47 88 C-55.45485046 83.28436818 -60.81632732 77.07999409 -66 69 C-66.99 69.495 -66.99 69.495 -68 70 C-68.66 68.68 -69.32 67.36 -70 66 C-68.40517951 72.42484826 -65.89682192 76.90891347 -61.62109375 81.95703125 C-60.07828077 83.90134737 -59.01836711 85.74540615 -58 88 C-65.52073453 82.28424176 -70.56682692 75.2460577 -73 66 C-73.66 66 -74.32 66 -75 66 C-77.13239902 62.52215874 -77.26898956 59.72752826 -77.25 55.6875 C-77.25515625 54.59824219 -77.2603125 53.50898437 -77.265625 52.38671875 C-76.74402959 45.7363773 -74.25671163 39.94942447 -71.5625 33.9375 C-71.26279297 33.25623047 -70.96308594 32.57496094 -70.65429688 31.87304688 C-64.00263644 16.85270303 -54.87601412 7.25090514 -39.79296875 0.58203125 C-37.21019561 -0.3757039 -34.64856694 -1.24583179 -32 -2 C-31.3709375 -2.19078125 -30.741875 -2.3815625 -30.09375 -2.578125 C-20.02190533 -4.60752654 -9.76090176 -2.53970705 0 0 Z " fill="#BE9B65" transform="translate(90,20)"/>
<path d="M0 0 C0 0.66 0 1.32 0 2 C-0.66 2 -1.32 2 -2 2 C-1.505 7.94 -1.505 7.94 -1 14 C-1.66 13.34 -2.32 12.68 -3 12 C-3 11.01 -3 10.02 -3 9 C-3.66 9 -4.32 9 -5 9 C-4.505 9.99 -4.505 9.99 -4 11 C-3.75 13.9375 -3.75 13.9375 -4 17 C-4.98629624 18.01351849 -5.98760027 19.01255543 -7 20 C-7.93277664 21.80823918 -7.93277664 21.80823918 -8.60546875 23.79296875 C-8.86650391 24.50517578 -9.12753906 25.21738281 -9.39648438 25.95117188 C-9.65751953 26.68916016 -9.91855469 27.42714844 -10.1875 28.1875 C-10.46013672 28.93708984 -10.73277344 29.68667969 -11.01367188 30.45898438 C-11.68326096 32.30329116 -12.34263721 34.15130012 -13 36 C-12.27554688 35.39929687 -11.55109375 34.79859375 -10.8046875 34.1796875 C-9.83789062 33.41914062 -8.87109375 32.65859375 -7.875 31.875 C-6.92367187 31.10929687 -5.97234375 30.34359375 -4.9921875 29.5546875 C-2 28 -2 28 1.2421875 28.6953125 C2.83512807 29.44891328 4.42383407 30.21191703 6 31 C6 32.65 6 34.3 6 36 C0.06 36.33 -5.88 36.66 -12 37 C-12 37.66 -12 38.32 -12 39 C-11.278125 39.2475 -10.55625 39.495 -9.8125 39.75 C-6.75286734 41.10983674 -4.5326262 42.82917754 -2 45 C-2.33 46.65 -2.66 48.3 -3 50 C-3.66 50 -4.32 50 -5 50 C-5 52.64 -5 55.28 -5 58 C-7.91619791 54.59634379 -9.2238027 51.08587691 -10.6875 46.875 C-11.12449219 45.63492188 -11.56148437 44.39484375 -12.01171875 43.1171875 C-13 40 -13 40 -13 38 C-13.54269531 38.37253906 -14.08539063 38.74507812 -14.64453125 39.12890625 C-15.35996094 39.60199219 -16.07539062 40.07507813 -16.8125 40.5625 C-17.52019531 41.03816406 -18.22789063 41.51382813 -18.95703125 42.00390625 C-21 43 -21 43 -24 42 C-25.37195574 40.70644173 -26.71182656 39.37701298 -28 38 C-26.26043342 36.26043342 -23.8063378 36.62809614 -21.4375 36.4375 C-20.42558594 36.35371094 -19.41367187 36.26992187 -18.37109375 36.18359375 C-17.19740234 36.09271484 -17.19740234 36.09271484 -16 36 C-18.78626782 33.99239214 -21.57986583 31.99524047 -24.375 30 C-25.1690625 29.42765625 -25.963125 28.8553125 -26.78125 28.265625 C-27.54179688 27.72421875 -28.30234375 27.1828125 -29.0859375 26.625 C-29.7876709 26.12226562 -30.4894043 25.61953125 -31.21240234 25.1015625 C-32.93382145 23.8251279 -32.93382145 23.8251279 -35 24 C-34.71125 24.69867188 -34.4225 25.39734375 -34.125 26.1171875 C-33.75375 27.02726562 -33.3825 27.93734375 -33 28.875 C-32.62875 29.77992187 -32.2575 30.68484375 -31.875 31.6171875 C-31 34 -31 34 -31 36 C-32.87109375 35.75 -32.87109375 35.75 -35 35 C-36.16015625 33.25 -36.16015625 33.25 -37.0625 31 C-37.38863281 30.19691406 -37.71476562 29.39382812 -38.05078125 28.56640625 C-39.46568883 24.7409154 -40.78499073 20.89355243 -42 17 C-40.02 17 -38.04 17 -36 17 C-36 16.34 -36 15.68 -36 15 C-35.34 15 -34.68 15 -34 15 C-33.979375 14.278125 -33.95875 13.55625 -33.9375 12.8125 C-32.54501546 8.63504639 -29.64412066 7.10736515 -26 5 C-24.82050781 4.29423828 -24.82050781 4.29423828 -23.6171875 3.57421875 C-15.66624599 -0.63859354 -8.79542982 -0.53413541 0 0 Z " fill="#E4E9D8" transform="translate(78,28)"/>
<path d="M0 0 C-0.81853545 12.68729941 -5.85843427 23.27629184 -15.203125 32.07421875 C-28.50288716 42.79308301 -28.50288716 42.79308301 -36 42 C-37.3743291 40.70896357 -38.70896357 39.3743291 -40 38 C-40.680625 37.855625 -41.36125 37.71125 -42.0625 37.5625 C-44.98161586 36.71501475 -45.48287565 34.54876891 -47 32 C-49.56610666 30.19203897 -49.56610666 30.19203897 -52 29 C-52.33 29.66 -52.66 30.32 -53 31 C-53.33 30.01 -53.66 29.02 -54 28 C-55.32 28 -56.64 28 -58 28 C-58.12375 28.969375 -58.2475 29.93875 -58.375 30.9375 C-58.684375 32.4534375 -58.684375 32.4534375 -59 34 C-59.99 34.495 -59.99 34.495 -61 35 C-61.85271484 34.36771484 -61.85271484 34.36771484 -62.72265625 33.72265625 C-67.65357294 30.22409266 -71.0029027 28.49975811 -77 28 C-77.33 27.34 -77.66 26.68 -78 26 C-57.34307423 20.17650497 -57.34307423 20.17650497 -51.25 23.5 C-50.5075 24.325 -49.765 25.15 -49 26 C-47.61073782 27.17448388 -46.21433419 28.34055069 -44.8125 29.5 C-42.03168941 31.83949648 -40.56267266 33.74443195 -39 37 C-36.99983534 38.20882096 -36.99983534 38.20882096 -35 39 C-34.67 39.33 -34.34 39.66 -34 40 C-33.51915734 36.83358551 -33.04063706 33.66682407 -32.5625 30.5 C-32.42779297 29.613125 -32.29308594 28.72625 -32.15429688 27.8125 C-32.02216797 26.9359375 -31.89003906 26.059375 -31.75390625 25.15625 C-31.61452637 24.28484375 -31.47514648 23.4134375 -31.33154297 22.515625 C-30.95639772 20.04845607 -30.95639772 20.04845607 -30.96923828 17.734375 C-30.91796875 15.65625 -30.91796875 15.65625 -30 12 C-27.53153859 9.72830276 -24.77523852 8.40511078 -21.75 7 C-20.98558594 6.60683594 -20.22117188 6.21367188 -19.43359375 5.80859375 C-15.54248088 3.87983832 -12.4475652 2.43071165 -8 3 C-8 2.34 -8 1.68 -8 1 C-5.29120665 -0.35439668 -2.99066732 -0.06501451 0 0 Z " fill="#1D3654" transform="translate(112,66)"/>
<path d="M0 0 C1.32 0 2.64 0 4 0 C4.98838433 2.0372203 5.96532252 4.07999607 6.9375 6.125 C7.48277344 7.26195312 8.02804688 8.39890625 8.58984375 9.5703125 C11.66679217 17.05386018 11.66679217 17.05386018 10.33666992 20.93603516 C9.34700576 23.09369047 8.26509774 25.16808239 7.125 27.25 C6.74730469 27.96929687 6.36960937 28.68859375 5.98046875 29.4296875 C4.99981877 31.29327144 4.00110861 33.14732598 3 35 C1.79727181 37.40545638 1.89928528 38.94996953 1.9375 41.625 C1.94652344 42.44226563 1.95554687 43.25953125 1.96484375 44.1015625 C1.97644531 44.72804687 1.98804688 45.35453125 2 46 C2.969375 46.04125 3.93875 46.0825 4.9375 46.125 C10.10400494 46.81316152 13.9090346 49.96656307 18 53 C20.1385485 50.8614515 20.42655063 49.86724686 21 47 C22.32 47 23.64 47 25 47 C25.33 47.66 25.66 48.32 26 49 C26.99 48.67 27.98 48.34 29 48 C32.1875 50.25 32.1875 50.25 35 53 C35 53.99 35 54.98 35 56 C35.94875 56.12375 36.8975 56.2475 37.875 56.375 C41 57 41 57 43 59 C43 59.99 43 60.98 43 62 C31.95030944 65.07818316 19.14521494 63.94631118 9.19921875 58.453125 C1.99806913 54.14197317 -3.05662305 50.47945954 -5.8125 42.3125 C-8.94382749 29.25039105 -8.37913326 14.69961363 -1.8125 2.875 C-1.214375 1.92625 -0.61625 0.9775 0 0 Z " fill="#2D659D" transform="translate(33,47)"/>
<path d="M0 0 C0.33 0 0.66 0 1 0 C3.11161731 15.74487472 3.11161731 15.74487472 4 23 C4.52464844 23.14695312 5.04929687 23.29390625 5.58984375 23.4453125 C11.42704474 25.13528417 17.19067305 27.02767289 22.9375 29 C23.68314209 29.2489502 24.42878418 29.49790039 25.19702148 29.75439453 C28.85981845 31.02888262 31.40308711 32.12728668 34 35 C32.7934375 35.680625 32.7934375 35.680625 31.5625 36.375 C28.91143428 37.74725665 28.91143428 37.74725665 28 40 C27.34257813 39.9484375 26.68515625 39.896875 26.0078125 39.84375 C19.71177515 40.17081688 13.68557841 42.32162463 8.62304688 46.08691406 C3.57706728 52.03461203 4.35350451 62.2869528 4.24853516 69.69677734 C4 72 4 72 2 74 C2 73.34 2 72.68 2 72 C1.34 72 0.68 72 0 72 C0.33 69.69 0.66 67.38 1 65 C0.34 65 -0.32 65 -1 65 C-4.7295359 59.40569614 -3.98431687 54.34337537 -3 48 C-2.34 48 -1.68 48 -1 48 C-0.62383188 45.63449315 -0.62383188 45.63449315 -1 43 C-2.95574878 41.16610533 -2.95574878 41.16610533 -5.5 39.8125 C-7.02688729 38.91945944 -8.53495247 37.99123256 -10 37 C-10 36.34 -10 35.68 -10 35 C-4.03325384 33.67405641 1.92583615 33.9115413 8 34 C8 32.35 8 30.7 8 29 C4.09403354 27.35549962 4.09403354 27.35549962 0 27 C-2.68134691 28.55101683 -4.82006811 30.32542732 -7.1171875 32.3984375 C-9 34 -9 34 -11 34 C-9.27068234 26.99102311 -7.16032658 20.49711809 -4 14 C-3.67 14 -3.34 14 -3 14 C-3 11.69 -3 9.38 -3 7 C-2.34 7 -1.68 7 -1 7 C-0.67 7.33 -0.34 7.66 0 8 C0 5.36 0 2.72 0 0 Z " fill="#AD8B57" transform="translate(76,30)"/>
<path d="M0 0 C0.33 0.66 0.66 1.32 1 2 C1.66 2 2.32 2 3 2 C3.50789063 3.01320313 4.01578125 4.02640625 4.5390625 5.0703125 C5.2337742 6.42218391 5.92912083 7.77372917 6.625 9.125 C6.95628906 9.79015625 7.28757812 10.4553125 7.62890625 11.140625 C10.13418999 15.96211447 12.99899769 19.31999501 17 23 C16.61328125 22.49210937 16.2265625 21.98421875 15.828125 21.4609375 C6.47626081 9.09981009 6.47626081 9.09981009 5 4 C5.375 1.6875 5.375 1.6875 6 0 C6.391875 0.556875 6.78375 1.11375 7.1875 1.6875 C8.9807493 4.08174572 8.9807493 4.08174572 11.3125 6.25 C13.47001123 8.45768591 15.02305146 10.42600974 16.75 12.9375 C22.98427418 21.31825845 31.95423748 24.99311516 42 27 C53.49272822 28.13398316 63.75434095 26.25418413 74 21 C75.485 21.495 75.485 21.495 77 22 C77.125 24.75 77.125 24.75 76 28 C68.78933074 32.93190245 58.45089885 33.61598183 50 35 C64.79645984 34.70190282 75.7240776 29.90890181 87.234375 21.109375 C90 19 90 19 92 18 C92.495 19.485 92.495 19.485 93 21 C90.03 23.64 87.06 26.28 84 29 C84.99 30.98 84.99 30.98 86 33 C85.01 33.99 85.01 33.99 84 35 C84 34.34 84 33.68 84 33 C76.575 33.99 76.575 33.99 69 35 C69 35.66 69 36.32 69 37 C63.37742839 38.9169573 58.47630615 39.24889924 52.5625 39.125 C51.73556641 39.11597656 50.90863281 39.10695312 50.05664062 39.09765625 C48.03763292 39.07431512 46.01877644 39.03845288 44 39 C44 36.69 44 34.38 44 32 C42.1746875 31.814375 42.1746875 31.814375 40.3125 31.625 C36.89836696 31.20047558 34.17511537 30.34942403 31 29 C28.34609239 28.26805925 25.67938489 27.63578624 23 27 C22.67 28.65 22.34 30.3 22 32 C22.66 32 23.32 32 24 32 C24.33 33.32 24.66 34.64 25 36 C12.83659741 30.39027109 5.53296244 18.11951046 1 6 C0.1875 2.3125 0.1875 2.3125 0 0 Z " fill="#967646" transform="translate(14,84)"/>
<path d="M0 0 C1.39605469 0.34224609 1.39605469 0.34224609 2.8203125 0.69140625 C8.38518694 2.18047816 13.64095008 4.11668396 18 8 C19.125 10.75 19.125 10.75 20 14 C20.93651788 15.52699103 21.92057593 17.02533638 22.9375 18.5 C28.71499683 26.93430195 31.43566572 34.76185559 31 45 C30.34 44.67 29.68 44.34 29 44 C28.70202113 42.28135422 28.48901331 40.54783218 28.3125 38.8125 C27.51708628 33.4321405 25.93628369 29.11364942 23.5 24.3125 C23.19102783 23.70059814 22.88205566 23.08869629 22.5637207 22.45825195 C20.91036291 19.13381475 20.91036291 19.13381475 18 17 C18 17.66 18 18.32 18 19 C18.66 19 19.32 19 20 19 C20.12117188 19.6290625 20.24234375 20.258125 20.3671875 20.90625 C21.15834966 24.94726287 21.95826345 28.9247634 23.125 32.875 C25.67245395 43.14699175 23.80530825 53.26452159 20 63 C19.01 63.495 19.01 63.495 18 64 C18.31049726 62.56206608 18.6234776 61.1246682 18.9375 59.6875 C19.11152344 58.88699219 19.28554687 58.08648437 19.46484375 57.26171875 C20 55 20 55 21 52 C21.90358678 40.13719646 21.54540056 29.76946891 13.6640625 20.1484375 C12.08014691 18.41462454 10.45895189 16.71370587 8.79296875 15.05859375 C7 13 7 13 7 10 C8 7.8125 8 7.8125 9 6 C8.34 6 7.68 6 7 6 C6.67 7.32 6.34 8.64 6 10 C5.47148438 9.70351563 4.94296875 9.40703125 4.3984375 9.1015625 C-7.05601362 3.84072339 -23.04374556 2.71298264 -35 7 C-37.69624856 8.24472256 -40.32225413 9.5625977 -42.93359375 10.9765625 C-45 12 -45 12 -47 12 C-47.33 11.01 -47.66 10.02 -48 9 C-48.33 8.67 -48.66 8.34 -49 8 C-47.97426598 5.22933915 -47.2396329 4.14603891 -44.6796875 2.5859375 C-29.29125632 -4.05809267 -16.37455687 -4.26052619 0 0 Z " fill="#D6BD8A" transform="translate(90,20)"/>
<path d="M0 0 C7.79059799 0.73036856 15.70420053 3.93877617 20.8125 10 C21.534375 10.99 22.25625 11.98 23 13 C23.70125 13.78375 24.4025 14.5675 25.125 15.375 C28.80372918 20.52522085 30.47754267 25.63276443 30 32 C28.02 31.67 26.04 31.34 24 31 C23.67 29.68 23.34 28.36 23 27 C22.01 27 21.02 27 20 27 C19.67 27.66 19.34 28.32 19 29 C10.70434783 26.70434783 10.70434783 26.70434783 7.9375 23.9375 C7 22 7 22 7 20 C6.34 20 5.68 20 5 20 C2.71428571 11.57142857 2.71428571 11.57142857 3 7 C2.34 7 1.68 7 1 7 C0.67 7.66 0.34 8.32 0 9 C-1 8 -1 8 -1.125 4.5 C-1 1 -1 1 0 0 Z " fill="#365A9A" transform="translate(80,29)"/>
<path d="M0 0 C7.11120489 1.31117661 14.04699943 3.01720516 21 5 C21 7.31 21 9.62 21 12 C23.85440587 11.85803484 26.70846196 11.71154174 29.5625 11.5625 C30.76229492 11.50352539 30.76229492 11.50352539 31.98632812 11.44335938 C36.71371506 11.19251844 41.32476901 10.74678186 46 10 C46 9.34 46 8.68 46 8 C51.07476794 6.73694665 55.72796354 5.72963916 61 6 C61.495 7.98 61.495 7.98 62 10 C44.95552121 17.81000613 31.26063421 20.50811531 13 14 C3.71769019 10.22273144 3.71769019 10.22273144 1.734375 6.84375 C1.37085938 5.93109375 1.37085938 5.93109375 1 5 C0.34 5 -0.32 5 -1 5 C-0.67 3.35 -0.34 1.7 0 0 Z " fill="#6C5230" transform="translate(37,111)"/>
<path d="M0 0 C10.57792237 7.48194509 17.20868745 21.21121079 19.375 33.75 C19.97906353 38.4426787 20.07026108 42.39787736 19 47 C18.278125 46.236875 17.55625 45.47375 16.8125 44.6875 C14.16073022 41.955914 14.16073022 41.955914 11.1875 40.3125 C10.465625 39.879375 9.74375 39.44625 9 39 C9 38.34 9 37.68 9 37 C8.34 37 7.68 37 7 37 C6.67 37.66 6.34 38.32 6 39 C5.96261719 38.3915625 5.92523438 37.783125 5.88671875 37.15625 C5.38223231 30.42976412 4.32345143 23.91604865 3.01635742 17.30859375 C2 12.16591308 2 12.16591308 2 10 C1.34 10 0.68 10 0 10 C-0.33 8.68 -0.66 7.36 -1 6 C5.97360566 10.92533099 8.91246915 18.35608864 10.82421875 26.51953125 C11.29669309 29.34432466 11.70236343 32.15192597 12 35 C11.31008531 23.60451256 8.39487962 14.69709194 1.1875 5.75 C0 4 0 4 0 0 Z " fill="#AA8D56" transform="translate(108,29)"/>
<path d="M0 0 C0.33 0 0.66 0 1 0 C3.11161731 15.74487472 3.11161731 15.74487472 4 23 C4.52464844 23.14695312 5.04929687 23.29390625 5.58984375 23.4453125 C11.42704474 25.13528417 17.19067305 27.02767289 22.9375 29 C23.68314209 29.2489502 24.42878418 29.49790039 25.19702148 29.75439453 C28.85981845 31.02888262 31.40308711 32.12728668 34 35 C32.68 35 31.36 35 30 35 C30 34.34 30 33.68 30 33 C28.71867187 33.144375 27.43734375 33.28875 26.1171875 33.4375 C16.02263916 34.53456347 6.16473207 35.30292248 -4 35 C-4 34.67 -4 34.34 -4 34 C-0.04 34 3.92 34 8 34 C8 32.35 8 30.7 8 29 C4.09403354 27.35549962 4.09403354 27.35549962 0 27 C-2.68134691 28.55101683 -4.82006811 30.32542732 -7.1171875 32.3984375 C-9 34 -9 34 -11 34 C-9.27068234 26.99102311 -7.16032658 20.49711809 -4 14 C-3.67 14 -3.34 14 -3 14 C-3 11.69 -3 9.38 -3 7 C-2.34 7 -1.68 7 -1 7 C-0.67 7.33 -0.34 7.66 0 8 C0 5.36 0 2.72 0 0 Z " fill="#D5BA6B" transform="translate(76,30)"/>
<path d="M0 0 C0.33 0.66 0.66 1.32 1 2 C1.66 2 2.32 2 3 2 C3.50789063 3.01320313 4.01578125 4.02640625 4.5390625 5.0703125 C5.2337742 6.42218391 5.92912083 7.77372917 6.625 9.125 C6.95628906 9.79015625 7.28757812 10.4553125 7.62890625 11.140625 C10.13418999 15.96211447 12.99899769 19.31999501 17 23 C16.61328125 22.49210937 16.2265625 21.98421875 15.828125 21.4609375 C6.47626081 9.09981009 6.47626081 9.09981009 5 4 C5.375 1.6875 5.375 1.6875 6 0 C6.391875 0.556875 6.78375 1.11375 7.1875 1.6875 C8.9807493 4.08174572 8.9807493 4.08174572 11.3125 6.25 C13.4884978 8.4766024 15.15305868 10.54466264 16.9375 13.0625 C19.58141555 16.69530864 22.11414327 18.77951044 26 21 C25.67 21.99 25.34 22.98 25 24 C25.99 24 26.98 24 28 24 C28 24.66 28 25.32 28 26 C28.639375 26.12375 29.27875 26.2475 29.9375 26.375 C33.97011276 27.1979822 37.98423907 28.09885975 42 29 C42 29.66 42 30.32 42 31 C35.31006781 30.46048934 29.36539272 29.11293829 23 27 C22.67 28.65 22.34 30.3 22 32 C22.66 32 23.32 32 24 32 C24.33 33.32 24.66 34.64 25 36 C12.83659741 30.39027109 5.53296244 18.11951046 1 6 C0.1875 2.3125 0.1875 2.3125 0 0 Z " fill="#A4825A" transform="translate(14,84)"/>
<path d="M0 0 C5.09742528 2.33433494 9.40219225 5.29639889 13.875 8.625 C14.56335938 9.12773438 15.25171875 9.63046875 15.9609375 10.1484375 C17.66192806 11.40393053 19.33393374 12.69851821 21 14 C21 14.33 21 14.66 21 15 C15.06 15.495 15.06 15.495 9 16 C9.825 16.61875 10.65 17.2375 11.5 17.875 C12.325 18.57625 13.15 19.2775 14 20 C14 20.66 14 21.32 14 22 C12.13637125 23.40651227 10.20697369 24.72656258 8.25 26 C7.18265625 26.70125 6.1153125 27.4025 5.015625 28.125 C2.70656781 29.56068323 0.45951081 30.85382021 -2 32 C-1.7215625 32.9590625 -1.7215625 32.9590625 -1.4375 33.9375 C-1.293125 34.618125 -1.14875 35.29875 -1 36 C-2 37 -2 37 -5.0625 37.0625 C-6.031875 37.041875 -7.00125 37.02125 -8 37 C-7.38153621 32.08128014 -5.24673652 28.15278646 -3 23.8125 C-2.63132812 23.08869141 -2.26265625 22.36488281 -1.8828125 21.61914062 C-0.92672882 19.74361151 0.03617609 17.87156324 1 16 C1.33 15.34 1.66 14.68 2 14 C2.99 14 3.98 14 5 14 C4.45859375 12.73542969 4.45859375 12.73542969 3.90625 11.4453125 C3.4421875 10.34960938 2.978125 9.25390625 2.5 8.125 C2.0359375 7.03445312 1.571875 5.94390625 1.09375 4.8203125 C0 2 0 2 0 0 Z " fill="#BAA877" transform="translate(42,50)"/>
<path d="M0 0 C0.69738281 0.00451172 1.39476563 0.00902344 2.11328125 0.01367188 C3.82555803 0.0253998 5.53779033 0.04333347 7.25 0.0625 C7.25 0.7225 7.25 1.3825 7.25 2.0625 C8.19875 2.000625 9.1475 1.93875 10.125 1.875 C16.73268401 1.86156975 23.25340473 4.46397538 29.25 7.0625 C29.25 6.4025 29.25 5.7425 29.25 5.0625 C30.24 5.3925 31.23 5.7225 32.25 6.0625 C31.59 8.0425 30.93 10.0225 30.25 12.0625 C29.72148438 11.76601563 29.19296875 11.46953125 28.6484375 11.1640625 C17.19398638 5.90322339 1.20625444 4.77548264 -10.75 9.0625 C-13.44624856 10.30722256 -16.07225413 11.6250977 -18.68359375 13.0390625 C-20.75 14.0625 -20.75 14.0625 -22.75 14.0625 C-23.08 13.0725 -23.41 12.0825 -23.75 11.0625 C-24.08 10.7325 -24.41 10.4025 -24.75 10.0625 C-23.70986676 7.19295594 -22.96213942 6.18742655 -20.2890625 4.61328125 C-19.32742187 4.20464844 -18.36578125 3.79601562 -17.375 3.375 C-16.41851562 2.95863281 -15.46203125 2.54226562 -14.4765625 2.11328125 C-9.53467864 0.20874435 -5.28434585 -0.06493053 0 0 Z " fill="#C3A96B" transform="translate(65.75,17.9375)"/>
<path d="M0 0 C1.32 0 2.64 0 4 0 C4.98838433 2.0372203 5.96532252 4.07999607 6.9375 6.125 C7.48277344 7.26195312 8.02804688 8.39890625 8.58984375 9.5703125 C11.69971758 17.13393916 11.69971758 17.13393916 10.22680664 21.06201172 C9.08765969 23.38894164 7.85458584 25.6295489 6.5625 27.875 C6.12873047 28.65875 5.69496094 29.4425 5.24804688 30.25 C4.17972098 32.17533457 3.09703446 34.09092467 2 36 C-1.40087376 32.59912624 -1.21075602 28.08055102 -1.375 23.4375 C-1.35785248 16.53562262 0.96783079 11.10765513 4 5 C2.02 5.33 0.04 5.66 -2 6 C-2.06058594 6.60328125 -2.12117188 7.2065625 -2.18359375 7.828125 C-2.26738281 8.62734375 -2.35117187 9.4265625 -2.4375 10.25 C-2.51871094 11.03890625 -2.59992187 11.8278125 -2.68359375 12.640625 C-2.97634993 14.82364639 -3.42064419 16.8773182 -4 19 C-4.66 19 -5.32 19 -6 19 C-6 24.61 -6 30.22 -6 36 C-6.33 36 -6.66 36 -7 36 C-7.37350853 22.52602574 -7.38164407 11.70881473 0 0 Z " fill="#345A93" transform="translate(33,47)"/>
<path d="M0 0 C-0.9076793 12.25367058 -6.31261477 22.78073174 -15.34375 31.1796875 C-19.08429899 34.18459519 -22.47659326 36.34432223 -27 38 C-28 37 -28 37 -28.3203125 34.64453125 C-28 32 -28 32 -26.2421875 30.26171875 C-25.46101563 29.74222656 -24.67984375 29.22273438 -23.875 28.6875 C-17.9937276 24.44557439 -14.11198737 19.52793631 -11 13 C-10.34 13 -9.68 13 -9 13 C-9.00902344 12.39671875 -9.01804687 11.7934375 -9.02734375 11.171875 C-8.78867873 4.73829631 -8.78867873 4.73829631 -6.41015625 2.51171875 C-1.94386364 0 -1.94386364 0 0 0 Z " fill="#316499" transform="translate(112,67)"/>
<path d="M0 0 C1.32 0.66 2.64 1.32 4 2 C2.72444593 7.2297717 0.9330424 9.29020361 -3.375 12.4375 C-7.96901226 15.99725819 -10.63115101 18.72392724 -13 24 C-13.33 24.66 -13.66 25.32 -14 26 C-14.66 26 -15.32 26 -16 26 C-17.57077907 31.02649303 -18.44854729 35.76119922 -19 41 C-20.98 40.34 -22.96 39.68 -25 39 C-23.99146716 32.93772017 -21.45471832 27.59617332 -19 22 C-18.690625 21.26007812 -18.38125 20.52015625 -18.0625 19.7578125 C-14.25100485 11.28404203 -7.71353781 4.98165983 0 0 Z " fill="#C8B281" transform="translate(40,26)"/>
<path d="M0 0 C0.70189453 0.00902344 1.40378906 0.01804687 2.12695312 0.02734375 C3.85561525 0.05086296 5.58410145 0.08673287 7.3125 0.125 C7.3125 0.785 7.3125 1.445 7.3125 2.125 C6.260625 2.70894531 6.260625 2.70894531 5.1875 3.3046875 C0.77506716 6.09842894 -2.02405766 10.13481063 -5.2265625 14.20703125 C-9.03093354 18.86006967 -9.03093354 18.86006967 -12.13671875 20.11328125 C-15.34746602 20.128032 -18.33538646 19.73091849 -21.5 19.1875 C-22.66144531 18.99285156 -23.82289062 18.79820313 -25.01953125 18.59765625 C-25.89996094 18.44167969 -26.78039063 18.28570312 -27.6875 18.125 C-27.6875 16.125 -27.6875 16.125 -26.39453125 14.79296875 C-18.73134365 8.80462215 -9.82025711 6.14182667 -0.6875 3.125 C-3.9875 2.795 -7.2875 2.465 -10.6875 2.125 C-7.00662647 -0.32891569 -4.24394412 -0.10302759 0 0 Z " fill="#5486B1" transform="translate(70.6875,27.875)"/>
<path d="M0 0 C0.5465625 0.25007813 1.093125 0.50015625 1.65625 0.7578125 C0.32040278 4.76535417 -2.11268828 6.13257486 -5.34375 8.7578125 C-5.67375 9.4178125 -6.00375 10.0778125 -6.34375 10.7578125 C-7.33375 10.7578125 -8.32375 10.7578125 -9.34375 10.7578125 C-9.01375 12.0778125 -8.68375 13.3978125 -8.34375 14.7578125 C-9.33375 14.4278125 -10.32375 14.0978125 -11.34375 13.7578125 C-11.611875 14.4384375 -11.88 15.1190625 -12.15625 15.8203125 C-13.03079293 17.98365555 -13.95502679 20.12707252 -14.90625 22.2578125 C-17.35794677 28.22716116 -17.52626593 33.63817004 -17.53125 40.0078125 C-17.54349609 40.81605469 -17.55574219 41.62429687 -17.56835938 42.45703125 C-17.58198225 48.13322982 -16.79693374 53.27441095 -15.34375 58.7578125 C-20.65982103 53.85752356 -22.07241837 47.2269812 -22.6171875 40.26171875 C-22.91698958 28.62709171 -21.49030916 17.79814884 -13.34375 8.7578125 C-11.55715319 7.08156432 -9.72153704 5.45623296 -7.84375 3.8828125 C-6.9053125 3.08101562 -5.966875 2.27921875 -5 1.453125 C-2.34375 -0.2421875 -2.34375 -0.2421875 0 0 Z " fill="#334049" transform="translate(44.34375,33.2421875)"/>
<path d="M0 0 C3.90135023 1.45331755 6.2765736 2.79024746 9 6 C10.37152537 10.11457612 8.98760366 13.03979265 7.6875 17 C7.46126953 17.72445312 7.23503906 18.44890625 7.00195312 19.1953125 C5.95221255 22.47461736 4.92064202 25.11903696 3 28 C2.34 28 1.68 28 1 28 C1 27.34 1 26.68 1 26 C0.05125 25.855625 -0.8975 25.71125 -1.875 25.5625 C-5 25 -5 25 -7 24 C-6.39654128 21.16312189 -5.51468532 18.99885473 -4.0625 16.5 C-1.3498208 11.29165593 -0.7305044 5.76713997 0 0 Z " fill="#3F7DD4" transform="translate(117,68)"/>
<path d="M0 0 C0.495 0.99 0.495 0.99 1 2 C-0.07826365 3.27513763 -1.16285519 4.54492569 -2.25 5.8125 C-2.85328125 6.52019531 -3.4565625 7.22789063 -4.078125 7.95703125 C-5.92370398 9.91889671 -7.79945332 11.45669625 -10 13 C-9.505 15.475 -9.505 15.475 -9 18 C-4.17580486 14.86427316 0.42284316 11.4851448 5 8 C1.76614162 16.10302014 -7.99541521 21.53971022 -15.61328125 25.0078125 C-16.40089844 25.33523437 -17.18851563 25.66265625 -18 26 C-18.71542969 26.30679688 -19.43085937 26.61359375 -20.16796875 26.9296875 C-26.60572857 29.39221858 -33.16337935 29.69356723 -40 30 C-39.67 29.34 -39.34 28.68 -39 28 C-36.51135657 27.42800133 -34.07913165 26.96558088 -31.5625 26.5625 C-25.21050343 25.46906538 -19.11617982 24.0730321 -13 22 C-13 20.02 -13 18.04 -13 16 C-17.01998993 17.30649673 -20.95500574 18.74024189 -24.875 20.31640625 C-36.28627955 23.98731419 -49.17704957 22.87167719 -60 18 C-63.94286245 15.65035655 -67.70719896 13.21361544 -71 10 C-71 9.01 -71 8.02 -71 7 C-70.443125 7.45890625 -69.88625 7.9178125 -69.3125 8.390625 C-56.14970121 18.97422673 -44.71135047 20.00990117 -28.2421875 18.796875 C-17.96358543 17.05216764 -7.57763725 9.61129728 -1.0625 1.625 C-0.711875 1.08875 -0.36125 0.5525 0 0 Z " fill="#C8B994" transform="translate(103,90)"/>
<path d="M0 0 C0.86625 0.474375 1.7325 0.94875 2.625 1.4375 C3.285 1.7675 3.945 2.0975 4.625 2.4375 C4.625 4.0875 4.625 5.7375 4.625 7.4375 C-1.315 7.7675 -7.255 8.0975 -13.375 8.4375 C-13.375 9.0975 -13.375 9.7575 -13.375 10.4375 C-12.653125 10.685 -11.93125 10.9325 -11.1875 11.1875 C-8.12786734 12.54733674 -5.9076262 14.26667754 -3.375 16.4375 C-3.705 18.0875 -4.035 19.7375 -4.375 21.4375 C-5.035 21.4375 -5.695 21.4375 -6.375 21.4375 C-6.375 24.0775 -6.375 26.7175 -6.375 29.4375 C-9.29119791 26.03384379 -10.5988027 22.52337691 -12.0625 18.3125 C-12.49949219 17.07242188 -12.93648437 15.83234375 -13.38671875 14.5546875 C-14.375 11.4375 -14.375 11.4375 -14.375 9.4375 C-15.18904297 9.99630859 -15.18904297 9.99630859 -16.01953125 10.56640625 C-16.73496094 11.03949219 -17.45039062 11.51257813 -18.1875 12 C-19.24904297 12.71349609 -19.24904297 12.71349609 -20.33203125 13.44140625 C-22.375 14.4375 -22.375 14.4375 -25.375 13.4375 C-26.74695574 12.14394173 -28.08682656 10.81451298 -29.375 9.4375 C-27.1945158 7.2570158 -22.40334221 7.98717005 -19.453125 7.81640625 C-14.37132677 7.19085495 -11.24746696 5.52219501 -7.4375 2.1875 C-3.82008646 -0.63668108 -3.82008646 -0.63668108 0 0 Z " fill="#E5D69A" transform="translate(79.375,56.5625)"/>
<path d="M0 0 C-1.33333333 4 -2.66666667 8 -4 12 C-4.34842687 17.46949161 -4.51514019 22.90027342 -2.9375 28.1875 C-1.838103 32.65838115 -1.85084697 36.53313097 -3 41 C-3.66 41.66 -4.32 42.32 -5 43 C-8.3795007 40.38856764 -9.2416977 37.04008167 -10 33 C-10.22397395 29.68139527 -10.19072402 26.38661879 -10.125 23.0625 C-10.11597656 22.18787109 -10.10695313 21.31324219 -10.09765625 20.41210938 C-10.0742957 18.27461936 -10.03843247 16.13727214 -10 14 C-9.34 14 -8.68 14 -8 14 C-7.93941406 13.39671875 -7.87882812 12.7934375 -7.81640625 12.171875 C-7.73261719 11.37265625 -7.64882813 10.5734375 -7.5625 9.75 C-7.48128906 8.96109375 -7.40007813 8.1721875 -7.31640625 7.359375 C-7.02048007 5.15271556 -6.70573121 3.11251991 -6 1 C-4 0 -4 0 0 0 Z " fill="#3777B6" transform="translate(37,52)"/>
<path d="M0 0 C1.24546405 2.49092811 0.7767578 3.41080733 0 6 C-0.66 6 -1.32 6 -2 6 C-2.35964844 7.31871094 -2.35964844 7.31871094 -2.7265625 8.6640625 C-4.12107407 12.3171695 -5.76294869 14.48525552 -8.375 17.375 C-9.53128906 18.68597656 -9.53128906 18.68597656 -10.7109375 20.0234375 C-13 22 -13 22 -17 22 C-17.08126087 19.91731407 -17.13930839 17.83371342 -17.1875 15.75 C-17.22230469 14.58984375 -17.25710937 13.4296875 -17.29296875 12.234375 C-16.97839369 8.76146632 -16.52058511 7.37369787 -14 5 C-13.01 5 -12.02 5 -11 5 C-11 4.34 -11 3.68 -11 3 C-7.37 2.01 -3.74 1.02 0 0 Z " fill="#24437B" transform="translate(103,74)"/>
<path d="M0 0 C0.6811084 -0.00926514 1.3622168 -0.01853027 2.06396484 -0.02807617 C6.3700622 -0.00135301 9.87263122 0.67897674 13.875 2.25 C13.875 2.58 13.875 2.91 13.875 3.25 C11.895 3.58 9.915 3.91 7.875 4.25 C7.875 6.56 7.875 8.87 7.875 11.25 C8.865 10.92 9.855 10.59 10.875 10.25 C13.16071429 18.67857143 13.16071429 18.67857143 12.875 23.25 C13.535 23.25 14.195 23.25 14.875 23.25 C15.91289581 24.89333504 16.91067924 26.56243867 17.875 28.25 C18.535 28.91 19.195 29.57 19.875 30.25 C10.16911765 29.27941176 10.16911765 29.27941176 7.875 27.25 C5.18684004 20.03441274 4.99653479 11.89734271 4.875 4.25 C5.205 3.59 5.535 2.93 5.875 2.25 C-3.93525319 2.5180397 -11.8873983 3.76958492 -21.125 7.25 C-22.45251898 7.60578398 -23.78410222 7.94853352 -25.125 8.25 C-18.81052104 0.88310788 -9.04846207 0.07720531 0 0 Z " fill="#143E5F" transform="translate(72.125,25.75)"/>
<path d="M0 0 C3.39498613 0.93362118 5.85251616 2.17436337 8 5 C8 5.99 8 6.98 8 8 C8.94875 8.12375 9.8975 8.2475 10.875 8.375 C14 9 14 9 16 11 C16 11.99 16 12.98 16 14 C13.14839609 14.81434143 10.63373869 15.11881242 7.671875 15.09765625 C6.87265625 15.09443359 6.0734375 15.09121094 5.25 15.08789062 C4.425 15.07951172 3.6 15.07113281 2.75 15.0625 C1.90953125 15.05798828 1.0690625 15.05347656 0.203125 15.04882812 C-1.86461401 15.03707961 -3.93231624 15.01914522 -6 15 C-5.57739475 12.87198777 -5.13642627 10.74761548 -4.6875 8.625 C-4.44386719 7.44164063 -4.20023438 6.25828125 -3.94921875 5.0390625 C-3 2 -3 2 0 0 Z " fill="#214275" transform="translate(60,95)"/>
<path d="M0 0 C-2.77687356 3.24822479 -6.39061382 5.12183056 -10.0625 7.1875 C-10.69994141 7.55552734 -11.33738281 7.92355469 -11.99414062 8.30273438 C-16.74312964 11 -16.74312964 11 -19 11 C-19.66 13.31 -20.32 15.62 -21 18 C-21.33 18 -21.66 18 -22 18 C-21.95166016 17.12988281 -21.95166016 17.12988281 -21.90234375 16.2421875 C-21.94190651 13.57829471 -22.1332503 11.53008364 -23 9 C-25.22394926 6.99844567 -27.44588948 5.62635381 -30.06640625 4.19140625 C-30.70449219 3.79824219 -31.34257813 3.40507813 -32 3 C-32 2.34 -32 1.68 -32 1 C-10.46808511 -0.19148936 -10.46808511 -0.19148936 0 0 Z " fill="#A8833B" transform="translate(98,64)"/>
<path d="M0 0 C7.11732553 1.31230514 14.03426029 3.03530418 21 5 C21 8.63 21 12.26 21 16 C6.6382557 11.99405352 6.6382557 11.99405352 2 8 C1.67 7.01 1.34 6.02 1 5 C0.34 5 -0.32 5 -1 5 C-0.67 3.35 -0.34 1.7 0 0 Z " fill="#253F78" transform="translate(37,111)"/>
<path d="M0 0 C1.93111594 3.86223187 -0.06837639 8.06275698 -1.3125 11.9765625 C-3 15 -3 15 -5.625 16.5234375 C-11.69588507 18.08761962 -17.76265378 18.31186731 -24 18 C-22.77754864 14.33264591 -21.33423836 13.90679161 -18.05419922 12.14648438 C-14.39105211 10.10201815 -11.00089975 7.64712773 -7.5625 5.25 C-6.83095703 4.74339844 -6.09941406 4.23679687 -5.34570312 3.71484375 C-3.56203941 2.47910287 -1.78076783 1.23991037 0 0 Z " fill="#916430" transform="translate(63,66)"/>
<path d="M0 0 C7.97418162 1.39231743 13.95485772 4.06727185 20.5 8.8125 C22.82024021 12.19618364 22.8699134 14.90227214 23 19 C22.34 19.99 21.68 20.98 21 22 C17 17.25 17 17.25 17 15 C16.43410156 14.73316406 15.86820313 14.46632813 15.28515625 14.19140625 C12.04643888 12.5028442 9.12431349 10.41120441 6.12109375 8.33984375 C3.95108832 6.85075698 3.95108832 6.85075698 1 6 C1 5.01 1 4.02 1 3 C0.34 3 -0.32 3 -1 3 C-0.67 2.01 -0.34 1.02 0 0 Z " fill="#4187BE" transform="translate(80,29)"/>
<path d="M0 0 C2.3125 0.375 2.3125 0.375 4.625 2.75 C6.3125 5.375 6.3125 5.375 6.3125 7.375 C5.6525 7.375 4.9925 7.375 4.3125 7.375 C3.9825 8.035 3.6525 8.695 3.3125 9.375 C2.9825 8.385 2.6525 7.395 2.3125 6.375 C0.9925 6.375 -0.3275 6.375 -1.6875 6.375 C-1.81125 7.344375 -1.935 8.31375 -2.0625 9.3125 C-2.371875 10.8284375 -2.371875 10.8284375 -2.6875 12.375 C-3.6775 12.87 -3.6775 12.87 -4.6875 13.375 C-5.25597656 12.95347656 -5.82445312 12.53195313 -6.41015625 12.09765625 C-11.34107294 8.59909266 -14.6904027 6.87475811 -20.6875 6.375 C-21.0175 5.715 -21.3475 5.055 -21.6875 4.375 C-14.45793757 2.48747877 -7.39406726 1.03173032 0 0 Z " fill="#17365F" transform="translate(55.6875,87.625)"/>
<path d="M0 0 C0.125 2.75 0.125 2.75 -1 6 C-4.14403006 7.90473278 -7.4939718 8.94157639 -11 10 C-11.71285156 10.226875 -12.42570312 10.45375 -13.16015625 10.6875 C-17.88924702 12.04135501 -22.13804255 12.17364134 -27 12 C-26.67 10.02 -26.34 8.04 -26 6 C-24.64068359 5.74476562 -24.64068359 5.74476562 -23.25390625 5.484375 C-16.67580257 4.17571522 -10.72246808 2.8133866 -4.76953125 -0.328125 C-3 -1 -3 -1 0 0 Z " fill="#8E6835" transform="translate(91,106)"/>
<path d="M0 0 C-2.36292656 2.52588702 -3.66462511 3.88820837 -7 5 C-7.27585937 5.65484375 -7.55171875 6.3096875 -7.8359375 6.984375 C-9 9 -9 9 -11.6015625 9.828125 C-12.59929687 9.96734375 -13.59703125 10.1065625 -14.625 10.25 C-15.62789062 10.39953125 -16.63078125 10.5490625 -17.6640625 10.703125 C-18.82035156 10.85007812 -18.82035156 10.85007812 -20 11 C-20 11.66 -20 12.32 -20 13 C-20.928125 13.33 -21.85625 13.66 -22.8125 14 C-27.20727645 16.75750679 -27.55682077 19.10922593 -29 24 C-29.66 24 -30.32 24 -31 24 C-31.72737233 19.56827786 -31.70704406 16.19001723 -30 12 C-24.7962241 7.38046409 -16.92281252 3.30175481 -9.953125 2.765625 C-9.30859375 2.84296875 -8.6640625 2.9203125 -8 3 C-8 2.34 -8 1.68 -8 1 C-5.29120665 -0.35439668 -2.99066732 -0.06501451 0 0 Z " fill="#1A2544" transform="translate(112,66)"/>
<path d="M0 0 C0.66 0 1.32 0 2 0 C2.50838564 2.03959477 3.00633886 4.08179138 3.5 6.125 C3.7784375 7.26195312 4.056875 8.39890625 4.34375 9.5703125 C5.50656969 15.64742969 5.50656969 15.64742969 5 19 C2.6640625 21.3359375 2.6640625 21.3359375 -0.375 23.375 C-1.37273437 24.06335938 -2.37046875 24.75171875 -3.3984375 25.4609375 C-6 27 -6 27 -8 27 C-6.27068234 19.99102311 -4.16032658 13.49711809 -1 7 C-0.67 7 -0.34 7 0 7 C0 4.69 0 2.38 0 0 Z " fill="#BAA253" transform="translate(73,37)"/>
<path d="M0 0 C0.33 0.66 0.66 1.32 1 2 C1.66 2 2.32 2 3 2 C3.51949219 3.02480469 4.03898437 4.04960938 4.57421875 5.10546875 C5.27814996 6.46640243 5.98260498 7.82706527 6.6875 9.1875 C7.02716797 9.86103516 7.36683594 10.53457031 7.71679688 11.22851562 C9.9854128 15.5749293 12.35553566 18.71296123 16 22 C15.67 22.66 15.34 23.32 15 24 C13.68 23.01 12.36 22.02 11 21 C13.97 23.97 16.94 26.94 20 30 C20.33 28.02 20.66 26.04 21 24 C23.91517292 25.07401108 25.77810176 25.77810176 28 28 C26.35 27.67 24.7 27.34 23 27 C22.67 28.65 22.34 30.3 22 32 C22.66 32 23.32 32 24 32 C24.33 33.32 24.66 34.64 25 36 C12.83659741 30.39027109 5.53296244 18.11951046 1 6 C0.1875 2.3125 0.1875 2.3125 0 0 Z " fill="#957746" transform="translate(14,84)"/>
<path d="M0 0 C3.96 0 7.92 0 12 0 C12.33 0.99 12.66 1.98 13 3 C11.875 5.1875 11.875 5.1875 10 7 C8.95585938 6.93232422 8.95585938 6.93232422 7.890625 6.86328125 C3.64739533 7.06397454 0.56687588 9.0094804 -3.125 11 C-4.54139765 11.75541208 -5.96057076 12.50564918 -7.3828125 13.25 C-8.00559082 13.58515625 -8.62836914 13.9203125 -9.27001953 14.265625 C-11 15 -11 15 -14 15 C-14.33 14.01 -14.66 13.02 -15 12 C-9.06 8.7 -3.12 5.4 3 2 C2.01 1.34 1.02 0.68 0 0 Z " fill="#BEA059" transform="translate(94,63)"/>
<path d="M0 0 C5.09742528 2.33433494 9.40219225 5.29639889 13.875 8.625 C14.56335937 9.12773438 15.25171875 9.63046875 15.9609375 10.1484375 C17.66192806 11.40393053 19.33393374 12.69851821 21 14 C21 14.33 21 14.66 21 15 C18.72975032 15.08097324 16.45867925 15.13917704 14.1875 15.1875 C12.29064453 15.23970703 12.29064453 15.23970703 10.35546875 15.29296875 C7 15 7 15 5.1875 13.8046875 C3.7328926 11.59406705 2.76217723 9.40811625 1.8125 6.9375 C1.46832031 6.05964844 1.12414063 5.18179688 0.76953125 4.27734375 C0 2 0 2 0 0 Z " fill="#A17637" transform="translate(42,50)"/>
<path d="M0 0 C2.41700987 0.14129287 4.83350429 0.28786487 7.25 0.4375 C8.27287109 0.49647461 8.27287109 0.49647461 9.31640625 0.55664062 C16.62387972 1.01779186 16.62387972 1.01779186 19 2 C20.28317892 5.84953676 20.06643637 8.94738135 20 13 C15.91338667 13 13.72611464 10.89191011 10.5625 8.5625 C5.72525906 4.83980438 5.72525906 4.83980438 0 3 C0 2.01 0 1.02 0 0 Z " fill="#D8CD80" transform="translate(41,48)"/>
<path d="M0 0 C1.39101983 2.37291618 1.28167317 4.10936424 1.0625 6.8125 C0.52367188 6.31363281 -0.01515625 5.81476563 -0.5703125 5.30078125 C-4.93752369 2.55505936 -10.03815372 4.03545314 -14.9375 4.8125 C-16.94839078 5.44555821 -18.95213373 6.10344062 -20.9375 6.8125 C-24.3125 6.9375 -24.3125 6.9375 -26.9375 6.8125 C-26.9375 5.1625 -26.9375 3.5125 -26.9375 1.8125 C-24.08444871 1.30529088 -21.23033186 0.80656366 -18.375 0.3125 C-17.57513672 0.16941406 -16.77527344 0.02632813 -15.95117188 -0.12109375 C-3.64078107 -2.23144646 -3.64078107 -2.23144646 0 0 Z " fill="#714B33" transform="translate(60.9375,85.1875)"/>
<path d="M0 0 C3 1 3 1 4.328125 3.0546875 C5.26189929 7.14809341 4.08842281 10.27791034 2.75 14.125 C2.51925781 14.84042969 2.28851563 15.55585937 2.05078125 16.29296875 C0.98170933 19.52434433 -0.10283883 22.15425824 -2 25 C-2.66 25 -3.32 25 -4 25 C-4 24.34 -4 23.68 -4 23 C-5.32 22.67 -6.64 22.34 -8 22 C-7.59007813 21.24976562 -7.18015625 20.49953125 -6.7578125 19.7265625 C-3.32026749 13.19687175 -0.94114223 7.33441879 0 0 Z " fill="#1D386D" transform="translate(122,71)"/>
<path d="M0 0 C1.32 0.66 2.64 1.32 4 2 C2.8237487 8.72143599 -1.97429054 11.92565941 -7 16 C-7.33 15.34 -7.66 14.68 -8 14 C-10.31 14.33 -12.62 14.66 -15 15 C-10.84141548 8.72135278 -6.12355656 4.35452911 0 0 Z " fill="#AF8D4C" transform="translate(40,26)"/>
<path d="M0 0 C3.63 0 7.26 0 11 0 C11 0.66 11 1.32 11 2 C12.423125 1.9071875 12.423125 1.9071875 13.875 1.8125 C20.48268401 1.79906975 27.00340473 4.40147538 33 7 C33 6.34 33 5.68 33 5 C33.99 5.33 34.98 5.66 36 6 C35.34 7.98 34.68 9.96 34 12 C33.505 11.731875 33.01 11.46375 32.5 11.1875 C29.65677844 9.83696976 26.76056266 8.75997848 23.8046875 7.68359375 C22 7 22 7 20 6 C17.45384991 5.76827173 14.92603775 5.58105471 12.375 5.4375 C11.66859375 5.39431641 10.9621875 5.35113281 10.234375 5.30664062 C8.48981463 5.20055249 6.74493303 5.09977111 5 5 C5.66 3.68 6.32 2.36 7 1 C4.69 1 2.38 1 0 1 C0 0.67 0 0.34 0 0 Z " fill="#E5DFAD" transform="translate(62,18)"/>
<path d="M0 0 C0.33 0.66 0.66 1.32 1 2 C1.66 2 2.32 2 3 2 C2.47163794 6.34344694 1.01025668 8.70557129 -1.75 12.0625 C-2.42546875 12.89910156 -3.1009375 13.73570313 -3.796875 14.59765625 C-6.02829134 17.03084959 -8.37127485 19.01007345 -11 21 C-13 18 -13 18 -12.625 15.8125 C-12.41875 15.214375 -12.2125 14.61625 -12 14 C-11.34 14 -10.68 14 -10 14 C-9.71125 13.401875 -9.4225 12.80375 -9.125 12.1875 C-8 10 -8 10 -6 7 C-5.34 7 -4.68 7 -4 7 C-3.71125 6.401875 -3.4225 5.80375 -3.125 5.1875 C-2 3 -2 3 0 0 Z " fill="#89744A" transform="translate(117,94)"/>
<path d="M0 0 C1.32 0 2.64 0 4 0 C5.53995173 3.07990345 5.22377524 5.58742761 5 9 C4.2882463 10.61762204 3.57206969 12.23412173 2.80078125 13.82421875 C1.02485546 18.64953906 0.64912544 23.92154806 0 29 C-0.33 29 -0.66 29 -1 29 C-1.73304278 19.81253055 -0.08587011 13.2301098 4 5 C2.02 5.33 0.04 5.66 -2 6 C-2.06058594 6.60328125 -2.12117188 7.2065625 -2.18359375 7.828125 C-2.26738281 8.62734375 -2.35117187 9.4265625 -2.4375 10.25 C-2.51871094 11.03890625 -2.59992187 11.8278125 -2.68359375 12.640625 C-2.97634993 14.82364639 -3.42064419 16.8773182 -4 19 C-4.66 19 -5.32 19 -6 19 C-6 24.61 -6 30.22 -6 36 C-6.33 36 -6.66 36 -7 36 C-7.37350853 22.52602574 -7.38164407 11.70881473 0 0 Z " fill="#295582" transform="translate(33,47)"/>
<path d="M0 0 C-0.2972185 3.46754912 -0.98782572 4.98469519 -3.1875 7.75 C-6.32994907 10.26395926 -8.00580351 10.9150171 -12 11 C-15.36056696 9.87981101 -15.96356066 9.05465901 -18 6 C-15.5042679 3.5042679 -13.35004555 3.05099468 -10 2 C-9.154375 1.62875 -8.30875 1.2575 -7.4375 0.875 C-4.80171456 -0.07117939 -2.77832339 -0.15876134 0 0 Z " fill="#72A6CF" transform="translate(68,35)"/>
<path d="M0 0 C1.24523437 0.02707031 2.49046875 0.05414062 3.7734375 0.08203125 C4.71445313 0.11683594 5.65546875 0.15164062 6.625 0.1875 C3.97989433 3.56524285 1.06988274 4.02908026 -3 5 C-8.62715463 6.50561266 -12.86201703 8.33144664 -17.5078125 11.8203125 C-19.38723859 13.19646131 -21.26789541 14.20418452 -23.375 15.1875 C-23.375 14.5275 -23.375 13.8675 -23.375 13.1875 C-22.715 13.1875 -22.055 13.1875 -21.375 13.1875 C-21.354375 12.465625 -21.33375 11.74375 -21.3125 11 C-19.92586023 6.8400807 -17.06440619 5.33330848 -13.375 3.1875 C-12.45847656 2.64738281 -11.54195312 2.10726563 -10.59765625 1.55078125 C-6.81970722 -0.04740567 -4.08285965 -0.11555263 0 0 Z " fill="#8CCAF1" transform="translate(65.375,29.8125)"/>
<path d="M0 0 C0 0.66 0 1.32 0 2 C-0.67546875 2.26554687 -1.3509375 2.53109375 -2.046875 2.8046875 C-2.93890625 3.15789063 -3.8309375 3.51109375 -4.75 3.875 C-5.63171875 4.22304688 -6.5134375 4.57109375 -7.421875 4.9296875 C-9.6740248 5.8646709 -11.83649459 6.87780794 -14 8 C-11.36 7.34 -8.72 6.68 -6 6 C-7.33041992 8.66083984 -8.790359 9.01222434 -11.4375 10.3125 C-15.1947493 12.30547535 -15.1947493 12.30547535 -17.5625 15.8125 C-17.706875 16.534375 -17.85125 17.25625 -18 18 C-18.66 18 -19.32 18 -20 18 C-20 18.66 -20 19.32 -20 20 C-22.31 20.33 -24.62 20.66 -27 21 C-27 20.34 -27 19.68 -27 19 C-26.01 19 -25.02 19 -24 19 C-23.6596875 18.13375 -23.6596875 18.13375 -23.3125 17.25 C-21.67718931 14.44661024 -19.52773272 12.99557846 -17 11 C-17 10.34 -17 9.68 -17 9 C-17.66 8.34 -18.32 7.68 -19 7 C-17.06374902 6.01836578 -15.12595461 5.03977546 -13.1875 4.0625 C-12.10855469 3.51722656 -11.02960937 2.97195312 -9.91796875 2.41015625 C-6.22972773 0.6277533 -4.1517238 0 0 0 Z " fill="#48718D" transform="translate(62,25)"/>
<path d="M0 0 C1.33333333 1.33333333 2.66666667 2.66666667 4 4 C4.78375 4.7425 5.5675 5.485 6.375 6.25 C9.57700079 9.60447702 12.70963205 12.94277678 15 17 C14.875 20 14.875 20 14 22 C7.82132743 19.43347447 3.76745471 13.13840037 1.0625 7.1875 C0 4 0 4 0 0 Z " fill="#9A763F" transform="translate(19,84)"/>
<path d="M0 0 C1.98 0.66 3.96 1.32 6 2 C4.48238697 5.82852379 2.20656585 7.73321866 -1 10.25 C-1.886875 10.95640625 -2.77375 11.6628125 -3.6875 12.390625 C-6 14 -6 14 -8 14 C-8 12.68 -8 11.36 -8 10 C-8.66 9.67 -9.32 9.34 -10 9 C-6.7 6.03 -3.4 3.06 0 0 Z " fill="#967339" transform="translate(102,94)"/>
<path d="M0 0 C1.875 1.1875 1.875 1.1875 4 3 C4.9075 3.680625 5.815 4.36125 6.75 5.0625 C7.86375 6.0215625 7.86375 6.0215625 9 7 C9 7.66 9 8.32 9 9 C3.93950709 13.02539208 3.93950709 13.02539208 0.6875 12.9375 C-1 12 -1 12 -2 9 C-2.66 8.67 -3.32 8.34 -4 8 C-3.67 5.69 -3.34 3.38 -3 1 C-2.01 0.67 -1.02 0.34 0 0 Z " fill="#CDAE63" transform="translate(47,63)"/>
<path d="M0 0 C4.39335702 3.79966013 6.60746602 7.33039735 8 13 C8.1875 16.5 8.1875 16.5 8 19 C6.02 18.67 4.04 18.34 2 18 C-0.71975816 11.50023898 -1.21357445 6.95047184 0 0 Z " fill="#3072AC" transform="translate(102,42)"/>
<path d="M0 0 C2.3984375 1.60546875 2.3984375 1.60546875 4 3 C4.33 1.68 4.66 0.36 5 -1 C5.66 -1 6.32 -1 7 -1 C6.4740625 0.423125 6.4740625 0.423125 5.9375 1.875 C4.64973223 4.87060172 4.64973223 4.87060172 6 7 C4.02 6.34 2.04 5.68 0 5 C0 4.34 0 3.68 0 3 C-10.06938335 -0.31697334 -19.54138951 -0.31375831 -30 0 C-30 -0.66 -30 -1.32 -30 -2 C-21.87098993 -6.06450503 -8.22107647 -2.6355166 0 0 Z " fill="#746340" transform="translate(92,27)"/>
<path d="M0 0 C2.7984263 2.7984263 3.76993087 6.17196738 5.125 9.8125 C5.40214844 10.52470703 5.67929688 11.23691406 5.96484375 11.97070312 C7.39231971 15.77144577 8.37309913 18.87157706 8 23 C6.5 21.6875 6.5 21.6875 5 20 C5 19.01 5 18.02 5 17 C4.01 17 3.02 17 2 17 C1.731875 15.865625 1.46375 14.73125 1.1875 13.5625 C0.795625 12.386875 0.40375 11.21125 0 10 C-0.99 9.67 -1.98 9.34 -3 9 C-2.01 6.03 -1.02 3.06 0 0 Z " fill="#966D37" transform="translate(64,66)"/>
<path d="M0 0 C-0.55676146 7.51627976 -2.11148516 15.80128261 -8 21 C-7.814375 20.236875 -7.62875 19.47375 -7.4375 18.6875 C-6.77180827 15.91032625 -6.77180827 15.91032625 -8 13 C-7.0625 10.8125 -7.0625 10.8125 -6 9 C-6.66 9 -7.32 9 -8 9 C-8 7.35 -8 5.7 -8 4 C-1.125 0 -1.125 0 0 0 Z " fill="#2E5C8D" transform="translate(112,67)"/>
<path d="M0 0 C0 0.99 0 1.98 0 3 C-1.09699219 3.32613281 -2.19398437 3.65226562 -3.32421875 3.98828125 C-4.77875318 4.42933363 -6.23317435 4.87075966 -7.6875 5.3125 C-8.40873047 5.52583984 -9.12996094 5.73917969 -9.87304688 5.95898438 C-13.97703347 7.21454192 -17.3483544 8.68977523 -21 11 C-21.66 11 -22.32 11 -23 11 C-23.33 10.01 -23.66 9.02 -24 8 C-17.45031832 2.76025465 -8.41176814 -0.43860244 0 0 Z " fill="#EEE9C3" transform="translate(66,21)"/>
<path d="M0 0 C1.57156655 3.1431331 0.11705576 5.365464 -0.9375 8.625 C-1.31777344 9.81351563 -1.69804688 11.00203125 -2.08984375 12.2265625 C-2.39019531 13.14179687 -2.69054688 14.05703125 -3 15 C-4.32 15 -5.64 15 -7 15 C-6.67 14.01 -6.34 13.02 -6 12 C-8.64 11.67 -11.28 11.34 -14 11 C-9.85989729 6.45924219 -5.17609824 3.28157862 0 0 Z " fill="#7E521C" transform="translate(63,66)"/>
<path d="M0 0 C2 2 2 2 2 5 C-0.85160391 5.81434143 -3.36626131 6.11881242 -6.328125 6.09765625 C-7.12734375 6.09443359 -7.9265625 6.09121094 -8.75 6.08789062 C-9.575 6.07951172 -10.4 6.07113281 -11.25 6.0625 C-12.09046875 6.05798828 -12.9309375 6.05347656 -13.796875 6.04882812 C-15.86461401 6.03707961 -17.93231624 6.01914522 -20 6 C-19.41734375 5.71382813 -18.8346875 5.42765625 -18.234375 5.1328125 C-16.85221965 4.4320694 -15.48365461 3.70277597 -14.140625 2.9296875 C-9.1703778 0.15702894 -5.68609783 -0.58821702 0 0 Z " fill="#30689F" transform="translate(74,104)"/>
<path d="M0 0 C-1.33333333 4 -2.66666667 8 -4 12 C-4.27028229 15.64666585 -4.4455706 19.29293716 -4.62109375 22.9453125 C-4.74613281 23.95335938 -4.87117188 24.96140625 -5 26 C-5.66 26.33 -6.32 26.66 -7 27 C-8.35854758 18.16944075 -7.94579485 9.71625063 -6 1 C-4 0 -4 0 0 0 Z " fill="#4087C2" transform="translate(37,52)"/>
<path d="M0 0 C0.65226562 0.13277344 1.30453125 0.26554687 1.9765625 0.40234375 C6.6408287 1.34482822 11.29868454 2.25768703 16 3 C16 3.33 16 3.66 16 4 C12.13013042 4.07442057 8.7264085 4.04702186 5 3 C5.433125 3.98742188 5.86625 4.97484375 6.3125 5.9921875 C6.87519045 7.28637554 7.43768005 8.58065093 8 9.875 C8.28617188 10.52597656 8.57234375 11.17695312 8.8671875 11.84765625 C11 16.7734375 11 16.7734375 11 19 C9.12890625 18.75 9.12890625 18.75 7 18 C5.83984375 16.25 5.83984375 16.25 4.9375 14 C4.61136719 13.19691406 4.28523438 12.39382812 3.94921875 11.56640625 C2.53431117 7.7409154 1.21500927 3.89355243 0 0 Z " fill="#E0D18E" transform="translate(36,45)"/>
<path d="M0 0 C13.3996932 -0.54983544 25.26833665 1.86367619 38 6 C37.01 6.33 36.02 6.66 35 7 C34.34 6.67 33.68 6.34 33 6 C33 6.66 33 7.32 33 8 C29.61749581 7.37405616 26.4003728 6.54644499 23.125 5.5 C19.0665154 4.25450697 15.21571191 3.45822956 11 3 C11 2.34 11 1.68 11 1 C7.37 1 3.74 1 0 1 C0 0.67 0 0.34 0 0 Z " fill="#6B97A8" transform="translate(62,17)"/>
<path d="M0 0 C0.33 3.96 0.66 7.92 1 12 C0.34 11.34 -0.32 10.68 -1 10 C-1 9.01 -1 8.02 -1 7 C-1.66 7 -2.32 7 -3 7 C-2.67 7.66 -2.34 8.32 -2 9 C-1.960008 10.99960012 -1.95653201 13.00047242 -2 15 C-2.99 15.33 -3.98 15.66 -5 16 C-5 14.68 -5 13.36 -5 12 C-5.928125 12.99 -5.928125 12.99 -6.875 14 C-9 16 -9 16 -11 16 C-10.67 14.68 -10.34 13.36 -10 12 C-9.34 12 -8.68 12 -8 12 C-6.87778339 9.83572512 -5.901437 7.73059447 -5.0625 5.4375 C-2.69230769 0 -2.69230769 0 0 0 Z " fill="#DDDAA7" transform="translate(76,30)"/>
<path d="M0 0 C1.65 1.32 3.3 2.64 5 4 C4.34 4 3.68 4 3 4 C3 4.99 3 5.98 3 7 C3.66 7 4.32 7 5 7 C5 7.66 5 8.32 5 9 C4.34 9 3.68 9 3 9 C3 13.62 3 18.24 3 23 C2.34 23 1.68 23 1 23 C-1.16104832 19.49790588 -1.23968027 16.69506086 -1.1875 12.625 C-1.17783203 10.97371094 -1.17783203 10.97371094 -1.16796875 9.2890625 C-1.00612356 6.11990794 -0.5882772 3.11551603 0 0 Z " fill="#A58351" transform="translate(14,63)"/>
<path d="M0 0 C1.33688789 2.67377579 0.4900722 4.10048877 -0.33496094 6.8515625 C-3.4372511 17.26962605 -3.39799448 27.20992751 -3 38 C-7.18667618 33.81332382 -6.3363378 27.06610919 -6.39819336 21.46069336 C-6.2915193 14.89688195 -4.83146687 4.83146687 0 0 Z " fill="#5D5137" transform="translate(28,46)"/>
<path d="M0 0 C1.32 0.33 2.64 0.66 4 1 C4 1.66 4 2.32 4 3 C3.34 3 2.68 3 2 3 C1.72414063 3.84820312 1.44828125 4.69640625 1.1640625 5.5703125 C-0.01454991 9.04286854 -1.29930406 12.45609995 -2.625 15.875 C-3.07101563 17.02742188 -3.51703125 18.17984375 -3.9765625 19.3671875 C-4.31429688 20.23601563 -4.65203125 21.10484375 -5 22 C-6.32 21.67 -7.64 21.34 -9 21 C-8.51789062 19.90300781 -8.03578125 18.80601563 -7.5390625 17.67578125 C-6.9009994 16.22137271 -6.26298092 14.76694459 -5.625 13.3125 C-5.30789062 12.59126953 -4.99078125 11.87003906 -4.6640625 11.12695312 C-3.04797199 7.44024665 -1.46463702 3.75035844 0 0 Z " fill="#639CC1" transform="translate(24,41)"/>
<path d="M0 0 C11.52164009 -0.55353075 11.52164009 -0.55353075 17 3 C17 3.66 17 4.32 17 5 C15.2709226 5.02725341 13.54171824 5.04650987 11.8125 5.0625 C10.36810547 5.07990234 10.36810547 5.07990234 8.89453125 5.09765625 C6.14423487 5.00486622 3.67520409 4.62111685 1 4 C0.67 2.68 0.34 1.36 0 0 Z " fill="#5B3B1E" transform="translate(58,124)"/>
<path d="M0 0 C0 0.99 0 1.98 0 3 C-0.515625 3.4125 -1.03125 3.825 -1.5625 4.25 C-3.42337175 6.10050364 -3.42337175 6.10050364 -2.6875 9.6875 C-2.3471875 11.3271875 -2.3471875 11.3271875 -2 13 C-3.98 14.32 -5.96 15.64 -8 17 C-8.66 16.67 -9.32 16.34 -10 16 C-9.67 14.35 -9.34 12.7 -9 11 C-9.66 10.67 -10.32 10.34 -11 10 C-5.555 5.05 -5.555 5.05 0 0 Z " fill="#AC9763" transform="translate(108,103)"/>
<path d="M0 0 C3.80635497 3.20760251 7.54563567 6.40746109 11 10 C11.33 8.02 11.66 6.04 12 4 C14.91517292 5.07401108 16.77810176 5.77810176 19 8 C16.525 7.505 16.525 7.505 14 7 C13.67 8.65 13.34 10.3 13 12 C13.66 12 14.32 12 15 12 C15.33 13.32 15.66 14.64 16 16 C9.57708827 13.08961812 3.96740237 7.78579512 0 2 C0 1.34 0 0.68 0 0 Z " fill="#574020" transform="translate(23,104)"/>
<path d="M0 0 C5.75 1.875 5.75 1.875 8 3 C8 4.65 8 6.3 8 8 C5.69 8 3.38 8 1 8 C1 7.34 1 6.68 1 6 C-1.97 5.505 -1.97 5.505 -5 5 C-3.35 3.35 -1.7 1.7 0 0 Z " fill="#DCC579" transform="translate(76,56)"/>
<path d="M0 0 C0.33 0 0.66 0 1 0 C1 3.63 1 7.26 1 11 C-0.65 11 -2.3 11 -4 11 C-3.34 10.34 -2.68 9.68 -2 9 C-3.12019531 8.59007812 -4.24039063 8.18015625 -5.39453125 7.7578125 C-6.867263 7.21374599 -8.33991511 6.66946389 -9.8125 6.125 C-10.55048828 5.85558594 -11.28847656 5.58617187 -12.04882812 5.30859375 C-12.76103516 5.04433594 -13.47324219 4.78007813 -14.20703125 4.5078125 C-14.8616333 4.26691895 -15.51623535 4.02602539 -16.19067383 3.77783203 C-18 3 -18 3 -21 1 C-20.39671875 1.08378906 -19.7934375 1.16757812 -19.171875 1.25390625 C-17.97304687 1.40666016 -17.97304687 1.40666016 -16.75 1.5625 C-15.96109375 1.66691406 -15.1721875 1.77132812 -14.359375 1.87890625 C-11.99467126 2.00027349 -10.2488963 1.69633257 -8 1 C-7.67 2.32 -7.34 3.64 -7 5 C-4.03 5.495 -4.03 5.495 -1 6 C-0.67 4.02 -0.34 2.04 0 0 Z " fill="#324F74" transform="translate(111,55)"/>
<path d="M0 0 C0.66 0 1.32 0 2 0 C4.28571429 8.42857143 4.28571429 8.42857143 4 13 C4.66 13 5.32 13 6 13 C7.03789581 14.64333504 8.03567924 16.31243867 9 18 C9.66 18.66 10.32 19.32 11 20 C8.36 19.67 5.72 19.34 3 19 C2.896875 17.741875 2.79375 16.48375 2.6875 15.1875 C2.26195381 11.6141636 1.58977877 10.4771797 -1 8 C-1.25265405 4.90498792 -1.39935013 2.79870027 0 0 Z " fill="#1E335D" transform="translate(81,36)"/>
<path d="M0 0 C0.66 0.99 1.32 1.98 2 3 C1.36191406 3.55429688 0.72382812 4.10859375 0.06640625 4.6796875 C-0.75988281 5.40414062 -1.58617188 6.12859375 -2.4375 6.875 C-3.26121094 7.59429687 -4.08492187 8.31359375 -4.93359375 9.0546875 C-7.05982155 10.83238745 -7.05982155 10.83238745 -8 13 C-9.98 13 -11.96 13 -14 13 C-14 12.01 -14 11.02 -14 10 C-12.20703125 8.53515625 -12.20703125 8.53515625 -9.8125 7.0625 C-6.36246907 4.88038264 -3.13375821 2.62831334 0 0 Z " fill="#A28149" transform="translate(105,102)"/>
<path d="M0 0 C0.99 0.33 1.98 0.66 3 1 C3 1.66 3 2.32 3 3 C5.31 3.33 7.62 3.66 10 4 C9.67 6.31 9.34 8.62 9 11 C9.66 11 10.32 11 11 11 C11.33 12.65 11.66 14.3 12 16 C7.34352424 13.24844614 4.7274296 10.82545236 2 6 C2 5.34 2 4.68 2 4 C1.36525925 2.65117592 0.70151152 1.3153341 0 0 Z " fill="#A28158" transform="translate(67,91)"/>
<path d="M0 0 C4.53735572 2.1426402 7.65517578 5.34402934 11 9 C11 9.66 11 10.32 11 11 C11.639375 11.309375 12.27875 11.61875 12.9375 11.9375 C15 13 15 13 16 14 C16.66 12.68 17.32 11.36 18 10 C18.33 11.98 18.66 13.96 19 16 C16.75 16.25 16.75 16.25 14 16 C12.6256709 14.70896357 11.29103643 13.3743291 10 12 C8.9790625 11.7834375 8.9790625 11.7834375 7.9375 11.5625 C4.99500815 10.70822817 4.45112472 8.58678755 3 6 C2.01 5.34 1.02 4.68 0 4 C0 3.34 0 2.68 0 2 C-0.66 1.67 -1.32 1.34 -2 1 C-1.34 0.67 -0.68 0.34 0 0 Z " fill="#413B3F" transform="translate(62,92)"/>
<path d="M0 0 C0.33 0.66 0.66 1.32 1 2 C0.67 2.66 0.34 3.32 0 4 C-1.8253125 4.0928125 -1.8253125 4.0928125 -3.6875 4.1875 C-6.48654889 4.43876112 -7.68106095 4.71232948 -9.79296875 6.6171875 C-10.82307727 7.88383946 -11.81919427 9.17916077 -12.7734375 10.50390625 C-13.17820312 10.99761719 -13.58296875 11.49132812 -14 12 C-14.66 12 -15.32 12 -16 12 C-16 13.98 -16 15.96 -16 18 C-16.33 18 -16.66 18 -17 18 C-17.46666667 9.91111111 -17.46666667 9.91111111 -15.6875 6.4375 C-14 5 -14 5 -11 5 C-11 4.34 -11 3.68 -11 3 C-7.37 2.01 -3.74 1.02 0 0 Z " fill="#1D3B68" transform="translate(103,74)"/>
<path d="M0 0 C6.60794255 1.27895662 12.96643662 2.93533289 19 6 C19.33 6.66 19.66 7.32 20 8 C18.68 8 17.36 8 16 8 C16 7.34 16 6.68 16 6 C9.565 6.495 9.565 6.495 3 7 C0 2 0 2 0 0 Z " fill="#C3B480" transform="translate(90,57)"/>
<path d="M0 0 C-3 2 -3 2 -6 2 C-6.33 2.99 -6.66 3.98 -7 5 C-9.64 5.33 -12.28 5.66 -15 6 C-15 6.66 -15 7.32 -15 8 C-15.64453125 8.22429687 -16.2890625 8.44859375 -16.953125 8.6796875 C-19.24388852 9.82889456 -19.24388852 9.82889456 -19.609375 12.3828125 C-19.65578125 13.28773437 -19.7021875 14.19265625 -19.75 15.125 C-19.80671875 16.03507812 -19.8634375 16.94515625 -19.921875 17.8828125 C-19.96054688 18.93082031 -19.96054688 18.93082031 -20 20 C-20.66 20 -21.32 20 -22 20 C-22.72759837 15.56690063 -22.71016177 12.19039637 -21 8 C-15.89321539 3.46097146 -6.87762806 -2.32717615 0 0 Z " fill="#3C2B1E" transform="translate(103,70)"/>
<path d="M0 0 C0.33 0 0.66 0 1 0 C3.11161731 15.74487472 3.11161731 15.74487472 4 23 C6.97 23.99 9.94 24.98 13 26 C13 26.33 13 26.66 13 27 C5.12352941 27.30294118 5.12352941 27.30294118 2 25 C-0.51005053 17.06729314 -0.2672903 8.24145101 0 0 Z " fill="#CAB570" transform="translate(76,30)"/>
<path d="M0 0 C2.12230803 3.79549693 2.68085123 7.40549578 3.33984375 11.66015625 C4.08459952 14.29985274 5.06652629 15.13968475 7 17 C7.1875 20.1875 7.1875 20.1875 7 23 C7.66 23.33 8.32 23.66 9 24 C7.02 23.67 5.04 23.34 3 23 C0.68822069 15.44818759 0.3876613 7.83483894 0 0 Z " fill="#393524" transform="translate(77,30)"/>
<path d="M0 0 C0.99 0.33 1.98 0.66 3 1 C4.1875 4.5625 4.1875 4.5625 5 8 C5.99 8 6.98 8 8 8 C8.66 9.32 9.32 10.64 10 12 C10.66 12 11.32 12 12 12 C12 13.65 12 15.3 12 17 C11.34 17 10.68 17 10 17 C10 16.34 10 15.68 10 15 C9.34 15 8.68 15 8 15 C6.34375 13.3203125 6.34375 13.3203125 4.5 11.125 C2.71066742 9.00964496 0.95980876 6.95980876 -1 5 C-0.625 2.375 -0.625 2.375 0 0 Z " fill="#B28751" transform="translate(61,75)"/>
<path d="M0 0 C0.33 1.32 0.66 2.64 1 4 C1.66 4 2.32 4 3 4 C3.6875 6.75 3.6875 6.75 4 10 C2.5625 12.375 2.5625 12.375 1 14 C-0.32 13.34 -1.64 12.68 -3 12 C-2.88648483 10.18674449 -2.75887039 8.37436643 -2.625 6.5625 C-2.55539063 5.55316406 -2.48578125 4.54382812 -2.4140625 3.50390625 C-2.27742188 2.67761719 -2.14078125 1.85132813 -2 1 C-1.34 0.67 -0.68 0.34 0 0 Z " fill="#F0EEED" transform="translate(63,50)"/>
<path d="M0 0 C0 0.66 0 1.32 0 2 C0.66 2 1.32 2 2 2 C2.66 3.65 3.32 5.3 4 7 C1.80464782 6.01587661 0.22530363 5.25769027 -1.37231445 3.43041992 C-2.89306732 1.82377215 -2.89306732 1.82377215 -4.99291992 1.7512207 C-5.73131104 1.80882568 -6.46970215 1.86643066 -7.23046875 1.92578125 C-8.43413086 2.00795898 -8.43413086 2.00795898 -9.66210938 2.09179688 C-10.91217773 2.20104492 -10.91217773 2.20104492 -12.1875 2.3125 C-13.03248047 2.37373047 -13.87746094 2.43496094 -14.74804688 2.49804688 C-16.83312095 2.65118791 -18.91675276 2.82374157 -21 3 C-21.33 2.34 -21.66 1.68 -22 1 C-19.08557841 0.44230204 -16.16974333 -0.0965802 -13.25 -0.625 C-12.425 -0.78484375 -11.6 -0.9446875 -10.75 -1.109375 C-9.95078125 -1.25117187 -9.1515625 -1.39296875 -8.328125 -1.5390625 C-7.5949707 -1.67521973 -6.86181641 -1.81137695 -6.10644531 -1.95166016 C-3.56082664 -2.01007839 -2.16352546 -1.28699835 0 0 Z " fill="#A1764B" transform="translate(62,83)"/>
<path d="M0 0 C1.485 0.99 1.485 0.99 3 2 C3.99 1.67 4.98 1.34 6 1 C9.625 1.3125 9.625 1.3125 13 2 C13.33 2.66 13.66 3.32 14 4 C11.10765685 4.82638376 9.11257569 5 6 5 C9.60700972 9.23431576 14.14586161 11.4692099 19 14 C16 15 16 15 13.4765625 13.77734375 C8.13065351 10.32813398 3.58280097 7.31242902 0 2 C0 1.34 0 0.68 0 0 Z " fill="#2B567D" transform="translate(29,92)"/>
<path d="M0 0 C2.12563103 0.11376617 4.2505261 0.24135631 6.375 0.375 C8.15003906 0.47941406 8.15003906 0.47941406 9.9609375 0.5859375 C13 1 13 1 15 3 C15 3.99 15 4.98 15 6 C9.33557626 5.63495936 4.99296295 4.9445679 0 2 C0 1.34 0 0.68 0 0 Z " fill="#2E59AA" transform="translate(42,115)"/>
<path d="M0 0 C6.54546639 7.48053302 7.2450351 17.45529962 7 27 C6.34 27.66 5.68 28.32 5 29 C3.14748105 25.2949621 3.66910818 20.58679061 3.5703125 16.47265625 C3.3641634 11.55084655 2.37798814 8.39991389 0 4 C0 2.68 0 1.36 0 0 Z " fill="#6B512D" transform="translate(121,47)"/>
<path d="M0 0 C0.99 0.33 1.98 0.66 3 1 C2.01 1.495 2.01 1.495 1 2 C1.03480469 2.6290625 1.06960937 3.258125 1.10546875 3.90625 C1.30006784 10.05928781 0.49995743 14.37509578 -2 20 C-2.66 20 -3.32 20 -4 20 C-3.67 21.65 -3.34 23.3 -3 25 C-4.32 24.67 -5.64 24.34 -7 24 C-6.39654128 21.16312189 -5.51468532 18.99885473 -4.0625 16.5 C-1.3498208 11.29165593 -0.7305044 5.76713997 0 0 Z " fill="#495D78" transform="translate(117,68)"/>
<path d="M0 0 C2 1 2 1 2.625 2.5625 C3.16368951 6.06398181 3.05903219 9.45806833 3 13 C2.34 13 1.68 13 1 13 C-0.63676257 14.9600281 -0.63676257 14.9600281 -2 17 C-2.3690205 5.47835991 -2.3690205 5.47835991 0 0 Z " fill="#9E7F44" transform="translate(116,51)"/>
<path d="M0 0 C2.05064927 6.15194781 2.49810423 12.67467105 1 19 C-1.2596135 17.23160683 -1.96880018 16.11179935 -2.75 13.3125 C-3.04927527 9.34710263 -2.60928483 5.92650226 -2 2 C-1.34 2 -0.68 2 0 2 C0 1.34 0 0.68 0 0 Z " fill="#C1A06A" transform="translate(75,76)"/>
<path d="M0 0 C0.66 0.66 1.32 1.32 2 2 C1.67 2.66 1.34 3.32 1 4 C1.99 4 2.98 4 4 4 C4 4.66 4 5.32 4 6 C4.639375 6.12375 5.27875 6.2475 5.9375 6.375 C9.97011276 7.1979822 13.98423907 8.09885975 18 9 C18 9.66 18 10.32 18 11 C10.95568291 10.65914595 4.78767057 9.26036862 -1 5 C-1.78125 2.83203125 -1.78125 2.83203125 -2 1 C-1.34 0.67 -0.68 0.34 0 0 Z " fill="#9C8261" transform="translate(38,104)"/>
<path d="M0 0 C4.455 0.99 4.455 0.99 9 2 C9.33 3.98 9.66 5.96 10 8 C9.34 8 8.68 8 8 8 C7.67 8.99 7.34 9.98 7 11 C5.68 11 4.36 11 3 11 C3.66666667 8.33333333 4.33333333 5.66666667 5 3 C3.35 2.67 1.7 2.34 0 2 C0 1.34 0 0.68 0 0 Z " fill="#A48756" transform="translate(103,93)"/>
<path d="M0 0 C0.99 0.33 1.98 0.66 3 1 C3 1.99 3 2.98 3 4 C3.556875 3.79375 4.11375 3.5875 4.6875 3.375 C7.659538 2.89304789 9.31979941 3.73434972 12 5 C11.1875 6.9375 11.1875 6.9375 10 9 C9.01 9.33 8.02 9.66 7 10 C7 8.68 7 7.36 7 6 C5.700625 5.87625 4.40125 5.7525 3.0625 5.625 C0.84765625 5.4140625 0.84765625 5.4140625 -1 5 C-1.33 4.34 -1.66 3.68 -2 3 C-1.34 2.01 -0.68 1.02 0 0 Z " fill="#A08857" transform="translate(105,89)"/>
<path d="M0 0 C-0.33 0.99 -0.66 1.98 -1 3 C-3.36695387 4.03865096 -5.61555495 4.89577096 -8.0625 5.6875 C-8.72572266 5.91244141 -9.38894531 6.13738281 -10.07226562 6.36914062 C-11.71130207 6.92334719 -13.35522593 7.46306085 -15 8 C-15 7.01 -15 6.02 -15 5 C-13.44424022 4.15415002 -11.8800388 3.32381601 -10.3125 2.5 C-9.44238281 2.0359375 -8.57226562 1.571875 -7.67578125 1.09375 C-4.88211171 -0.04818792 -2.98370887 -0.21504208 0 0 Z " fill="#C2B38A" transform="translate(57,20)"/>
<path d="M0 0 C0.33 0.99 0.66 1.98 1 3 C-5.33773468 4.53332291 -11.50149789 5.48446121 -18 6 C-16.68 5.67 -15.36 5.34 -14 5 C-14 4.01 -14 3.02 -14 2 C-12.4176994 1.66179834 -10.83410625 1.32964061 -9.25 1 C-8.36828125 0.814375 -7.4865625 0.62875 -6.578125 0.4375 C-4 0 -4 0 0 0 Z " fill="#65473A" transform="translate(52,86)"/>
<path d="M0 0 C0.66 0.33 1.32 0.66 2 1 C0.95518663 7.70880162 -0.69800644 13.0564116 -4 19 C-4.66 18.67 -5.32 18.34 -6 18 C-5.71125 17.195625 -5.4225 16.39125 -5.125 15.5625 C-3.81642821 11.41868933 -2.88782235 7.25021337 -2 3 C-1.34 3 -0.68 3 0 3 C0 2.01 0 1.02 0 0 Z " fill="#2F4B96" transform="translate(124,77)"/>
<path d="M0 0 C2.31 0.66 4.62 1.32 7 2 C6.67 3.65 6.34 5.3 6 7 C5.34 7 4.68 7 4 7 C4 9.64 4 12.28 4 15 C3.01 13.68 2.02 12.36 1 11 C1.33 10.34 1.66 9.68 2 9 C1.6808377 6.77375407 1.6808377 6.77375407 1.0625 4.375 C0.86785156 3.55773437 0.67320313 2.74046875 0.47265625 1.8984375 C0.31667969 1.27195312 0.16070312 0.64546875 0 0 Z " fill="#D6C082" transform="translate(69,71)"/>
<path d="M0 0 C1.93166016 0.01740234 1.93166016 0.01740234 3.90234375 0.03515625 C5.19269531 0.04417969 6.48304687 0.05320312 7.8125 0.0625 C8.81152344 0.07410156 9.81054688 0.08570312 10.83984375 0.09765625 C8.22470058 2.2180426 5.64346759 4.22857369 2.83984375 6.09765625 C-0.49553114 4.98586462 -1.79722969 3.62354327 -4.16015625 1.09765625 C-3.16015625 0.09765625 -3.16015625 0.09765625 0 0 Z " fill="#E6D08A" transform="translate(54.16015625,64.90234375)"/>
<path d="M0 0 C1.32 0.66 2.64 1.32 4 2 C4 3.65 4 5.3 4 7 C4.66 7 5.32 7 6 7 C7.4783226 9.95664519 7.06032783 12.74229737 7 16 C5.99152789 14.67306301 4.99450461 13.33743723 4 12 C3.55527344 11.45601562 3.11054687 10.91203125 2.65234375 10.3515625 C-1.04084576 5.63991684 -1.04084576 5.63991684 -0.8125 2.0625 C-0.544375 1.381875 -0.27625 0.70125 0 0 Z " fill="#BE9662" transform="translate(104,32)"/>
<path d="M0 0 C3.96 0.33 7.92 0.66 12 1 C12 4 12 4 10.5 5.6875 C10.005 6.120625 9.51 6.55375 9 7 C7.68176698 6.40844669 6.37052949 5.80128537 5.0625 5.1875 C4.33160156 4.85105469 3.60070313 4.51460937 2.84765625 4.16796875 C1 3 1 3 0 0 Z " fill="#C9B368" transform="translate(41,48)"/>
<path d="M0 0 C2.1640625 0.2421875 2.1640625 0.2421875 4.625 0.875 C5.44226563 1.07867188 6.25953125 1.28234375 7.1015625 1.4921875 C8.04128906 1.74355469 8.04128906 1.74355469 9 2 C9 1.34 9 0.68 9 0 C9.99 0.33 10.98 0.66 12 1 C11.34 2.98 10.68 4.96 10 7 C9.505 6.731875 9.01 6.46375 8.5 6.1875 C5.0763054 4.56124507 1.55867715 3.30484829 -2 2 C-1.34 1.34 -0.68 0.68 0 0 Z " fill="#E7CA96" transform="translate(86,23)"/>
<path d="M0 0 C0.66 0 1.32 0 2 0 C2 0.99 2 1.98 2 3 C6.62 2.67 11.24 2.34 16 2 C15.67 2.66 15.34 3.32 15 4 C9.47570753 5.74451341 4.77149626 6.20612487 -1 6 C-0.67 4.02 -0.34 2.04 0 0 Z " fill="#7E592E" transform="translate(65,112)"/>
<path d="M0 0 C2.3125 2.5 2.3125 2.5 4 5 C3.18273437 4.66226563 2.36546875 4.32453125 1.5234375 3.9765625 C-2.68782073 2.80936232 -6.07096142 2.98584642 -10.375 3.375 C-11.11105469 3.43171875 -11.84710938 3.4884375 -12.60546875 3.546875 C-14.40452468 3.68706118 -16.20241939 3.84201786 -18 4 C-12.97893963 1.29022139 -5.70618254 -1.14123651 0 0 Z " fill="#1A1D2B" transform="translate(58,88)"/>
<path d="M0 0 C0.33 0 0.66 0 1 0 C0.67 7.26 0.34 14.52 0 22 C-0.66 22.33 -1.32 22.66 -2 23 C-2 16.73 -2 10.46 -2 4 C-1.34 4 -0.68 4 0 4 C0 2.68 0 1.36 0 0 Z " fill="#2F71B0" transform="translate(29,62)"/>
<path d="M0 0 C-2.119212 1.36405618 -4.24448118 2.71631775 -6.375 4.0625 C-6.97828125 4.45244141 -7.5815625 4.84238281 -8.203125 5.24414062 C-9.76492557 6.22460432 -11.37992214 7.11916075 -13 8 C-13.66 7.67 -14.32 7.34 -15 7 C-14.67 6.01 -14.34 5.02 -14 4 C-10.9375 2.8125 -10.9375 2.8125 -8 2 C-8 1.34 -8 0.68 -8 0 C-4.90645403 -0.99435406 -3.09720845 -0.87840996 0 0 Z " fill="#8A5F1E" transform="translate(98,65)"/>
<path d="M0 0 C3.82229887 3.94970883 5.98960911 8.45126599 6 14 C4.53515625 15.7734375 4.53515625 15.7734375 3 17 C2.86722656 16.37351562 2.73445313 15.74703125 2.59765625 15.1015625 C2.42105469 14.28429687 2.24445312 13.46703125 2.0625 12.625 C1.88847656 11.81289063 1.71445312 11.00078125 1.53515625 10.1640625 C1.07669307 7.970537 1.07669307 7.970537 0 6 C-0.039992 4.00039988 -0.04346799 1.99952758 0 0 Z " fill="#484544" transform="translate(38,52)"/>
<path d="M0 0 C5.75762166 1.08896667 11.39247819 2.29336293 17 4 C17 4.33 17 4.66 17 5 C14.72942623 5.05398987 12.45848712 5.09278742 10.1875 5.125 C8.29064453 5.15980469 8.29064453 5.15980469 6.35546875 5.1953125 C3 5 3 5 0 3 C0 2.01 0 1.02 0 0 Z " fill="#3D538D" transform="translate(37,111)"/>
<path d="M0 0 C4.00649379 0.8983633 7.8646946 2.25148485 11.75 3.5625 C12.44738281 3.79646484 13.14476562 4.03042969 13.86328125 4.27148438 C15.5759787 4.84629379 17.28805186 5.42296275 19 6 C19 6.33 19 6.66 19 7 C12.80112515 7.37952295 8.5522888 6.8352113 3 4 C3 3.34 3 2.68 3 2 C2.01 2 1.02 2 0 2 C0 1.34 0 0.68 0 0 Z " fill="#9A7C48" transform="translate(39,106)"/>
<path d="M0 0 C0.33 0.66 0.66 1.32 1 2 C1.66 2 2.32 2 3 2 C2.67 3.32 2.34 4.64 2 6 C1.67 5.67 1.34 5.34 1 5 C-0.89658973 6.80176024 -2.46178731 8.60172286 -4.0625 10.6875 C-5.0215625 11.8321875 -5.0215625 11.8321875 -6 13 C-6.66 13 -7.32 13 -8 13 C-7.49396008 10.83125748 -7.00016187 9.00032373 -6 7 C-5.34 7 -4.68 7 -4 7 C-3.71125 6.401875 -3.4225 5.80375 -3.125 5.1875 C-2 3 -2 3 0 0 Z " fill="#78643C" transform="translate(117,94)"/>
<path d="M0 0 C0.33 0 0.66 0 1 0 C1.05420701 2.56278699 1.09377007 5.12441483 1.125 7.6875 C1.15013672 8.7693457 1.15013672 8.7693457 1.17578125 9.87304688 C1.21391569 14.04876781 0.8789919 17.2494138 -1 21 C-1.33 21 -1.66 21 -2 21 C-2.265625 4.53125 -2.265625 4.53125 0 0 Z " fill="#C1A279" transform="translate(80,79)"/>
<path d="M0 0 C3 1 3 1 4.1875 2.625 C5.27499354 5.80382728 5.1282071 8.66661533 5 12 C4.67 12 4.34 12 4 12 C3.67 13.65 3.34 15.3 3 17 C2.67 17 2.34 17 2 17 C-0.29612756 5.47835991 -0.29612756 5.47835991 0 0 Z " fill="#A78954" transform="translate(120,52)"/>
<path d="M0 0 C0.33 0.99 0.66 1.98 1 3 C0.20335937 3.56267578 0.20335937 3.56267578 -0.609375 4.13671875 C-3.90369968 6.52330068 -6.6934906 8.61686324 -9.25 11.8125 C-11.22273721 14.27842151 -12.02012402 14.42742052 -15 15 C-10.84141548 8.72135278 -6.12355656 4.35452911 0 0 Z " fill="#B9A36F" transform="translate(40,26)"/>
<path d="M0 0 C0.66 0 1.32 0 2 0 C1.67 2.64 1.34 5.28 1 8 C0.34 8 -0.32 8 -1 8 C-1 13.61 -1 19.22 -1 25 C-1.33 25 -1.66 25 -2 25 C-2.05421223 21.95809137 -2.09377548 18.91716001 -2.125 15.875 C-2.15013672 14.59109375 -2.15013672 14.59109375 -2.17578125 13.28125 C-2.21306681 8.43412707 -1.89580643 4.55292095 0 0 Z " fill="#275F94" transform="translate(28,58)"/>
<path d="M0 0 C6.875 3.75 6.875 3.75 8 6 C5.72975032 6.08097324 3.45867925 6.13917704 1.1875 6.1875 C-0.70935547 6.23970703 -0.70935547 6.23970703 -2.64453125 6.29296875 C-6 6 -6 6 -7.94921875 4.48828125 C-8.29597656 3.99714844 -8.64273438 3.50601563 -9 3 C-8.67 2.34 -8.34 1.68 -8 1 C-7.34 1.33 -6.68 1.66 -6 2 C-6 2.66 -6 3.32 -6 4 C-3.03 4.33 -0.06 4.66 3 5 C3 4.34 3 3.68 3 3 C2.01 2.67 1.02 2.34 0 2 C0 1.34 0 0.68 0 0 Z " fill="#A78738" transform="translate(55,59)"/>
<path d="M0 0 C2.375 0.5 2.375 0.5 5 2 C6.73750569 5.86762084 7.34629425 8.96111726 6 13 C5.34 13 4.68 13 4 13 C3.51891725 11.58398286 3.04021859 10.16715563 2.5625 8.75 C2.29566406 7.96109375 2.02882813 7.1721875 1.75390625 6.359375 C1.08045292 4.25178012 0.50849405 2.15246027 0 0 Z " fill="#B29560" transform="translate(115,41)"/>
<path d="M0 0 C0.66 0.33 1.32 0.66 2 1 C2 2.98 2 4.96 2 7 C1.01 7.33 0.02 7.66 -1 8 C-1 6.68 -1 5.36 -1 4 C-1.928125 4.99 -1.928125 4.99 -2.875 6 C-5 8 -5 8 -7 8 C-6.67 6.68 -6.34 5.36 -6 4 C-5.34 4 -4.68 4 -4 4 C-4 3.34 -4 2.68 -4 2 C-2.125 0.9375 -2.125 0.9375 0 0 Z " fill="#DAD28C" transform="translate(72,38)"/>
<path d="M0 0 C-0.6796875 1.953125 -0.6796875 1.953125 -2 4 C-4.3828125 4.609375 -4.3828125 4.609375 -7.125 4.75 C-8.03507812 4.80671875 -8.94515625 4.8634375 -9.8828125 4.921875 C-10.58148438 4.94765625 -11.28015625 4.9734375 -12 5 C-12 4.34 -12 3.68 -12 3 C-10.5682384 2.30062798 -9.12932968 1.61587282 -7.6875 0.9375 C-6.48673828 0.36322266 -6.48673828 0.36322266 -5.26171875 -0.22265625 C-3 -1 -3 -1 0 0 Z " fill="#977146" transform="translate(91,106)"/>
<path d="M0 0 C0.33 0.66 0.66 1.32 1 2 C0.34 2 -0.32 2 -1 2 C-0.67 3.65 -0.34 5.3 0 7 C-1.65 7.66 -3.3 8.32 -5 9 C-5 7.68 -5 6.36 -5 5 C-5.66 4.67 -6.32 4.34 -7 4 C-4.82575883 1.49962266 -3.26954202 0.56371414 0 0 Z " fill="#A07B46" transform="translate(99,99)"/>
<path d="M0 0 C0.763125 0.495 1.52625 0.99 2.3125 1.5 C4.92363751 3.24368308 4.92363751 3.24368308 8 3 C9.125 6.75 9.125 6.75 8 9 C4.20620942 7.50958227 2.31656242 5.30937488 0 2 C0 1.34 0 0.68 0 0 Z " fill="#8A622B" transform="translate(25,97)"/>
<path d="M0 0 C0.99 0 1.98 0 3 0 C3 0.66 3 1.32 3 2 C3.66 2 4.32 2 5 2 C6.37073786 3.63604196 7.70055256 5.30678061 9 7 C9.98230498 8.0173873 10.97469597 9.02596117 12 10 C8.50155614 9.36610765 6.15913124 7.94822306 3.25 5.9375 C2.45078125 5.38964844 1.6515625 4.84179688 0.828125 4.27734375 C0.22484375 3.85582031 -0.3784375 3.43429688 -1 3 C-0.67 2.01 -0.34 1.02 0 0 Z " fill="#4C92C8" transform="translate(84,32)"/>
<path d="M0 0 C1.32 0 2.64 0 4 0 C4 0.99 4 1.98 4 3 C3.05125 3.37125 2.1025 3.7425 1.125 4.125 C-2.25553808 5.73995905 -2.25553808 5.73995905 -3.375 9.1875 C-3.58125 10.115625 -3.7875 11.04375 -4 12 C-4.33 12 -4.66 12 -5 12 C-5 9.36 -5 6.72 -5 4 C-3.35 3.34 -1.7 2.68 0 2 C0 1.34 0 0.68 0 0 Z " fill="#101C2E" transform="translate(88,76)"/>
<path d="M0 0 C0.66 0.33 1.32 0.66 2 1 C2.625 3.5625 2.625 3.5625 3 6 C0.6875 8.0625 0.6875 8.0625 -2 10 C-2.99 9.67 -3.98 9.34 -5 9 C-3.35 6.03 -1.7 3.06 0 0 Z " fill="#C2A261" transform="translate(45,71)"/>
<path d="M0 0 C0.65226562 0.13277344 1.30453125 0.26554687 1.9765625 0.40234375 C6.6408287 1.34482822 11.29868454 2.25768703 16 3 C16 3.33 16 3.66 16 4 C8.57142857 4.14285714 8.57142857 4.14285714 5 3 C4.67 4.32 4.34 5.64 4 7 C3.34 7 2.68 7 2 7 C1.34 4.69 0.68 2.38 0 0 Z " fill="#E1DBA9" transform="translate(36,45)"/>
<path d="M0 0 C0.33 0 0.66 0 1 0 C1.04898437 0.97839844 1.09796875 1.95679687 1.1484375 2.96484375 C1.55892238 10.16248379 2.15869223 17.00303049 4 24 C0.07154988 20.24235206 0.07154988 20.24235206 -0.11352539 17.02880859 C-0.10828857 16.24328613 -0.10305176 15.45776367 -0.09765625 14.6484375 C-0.09443359 13.79765625 -0.09121094 12.946875 -0.08789062 12.0703125 C-0.07951172 11.18085937 -0.07113281 10.29140625 -0.0625 9.375 C-0.05798828 8.4778125 -0.05347656 7.580625 -0.04882812 6.65625 C-0.03702591 4.43743352 -0.02056155 2.21874982 0 0 Z " fill="#2C4D6A" transform="translate(25,68)"/>
<path d="M0 0 C2.97 1.98 2.97 1.98 6 4 C5.67 4.66 5.34 5.32 5 6 C4.01 5.34 3.02 4.68 2 4 C2.99 7.3 3.98 10.6 5 14 C4.34 14 3.68 14 3 14 C2.29866401 12.42274653 1.614417 10.83788667 0.9375 9.25 C0.55464844 8.36828125 0.17179687 7.4865625 -0.22265625 6.578125 C-1.04600008 3.84743691 -0.9773992 2.63098653 0 0 Z " fill="#E5CE91" transform="translate(67,67)"/>
<path d="M0 0 C4.07915022 2.10559202 6.04642613 4.08662363 8.3125 8.0625 C8.82425781 8.94035156 9.33601563 9.81820312 9.86328125 10.72265625 C11 13 11 13 11 15 C10.34 15 9.68 15 9 15 C8.3503125 13.63875 8.3503125 13.63875 7.6875 12.25 C5.01811985 6.81563185 5.01811985 6.81563185 0 4 C0 2.68 0 1.36 0 0 Z " fill="#245490" transform="translate(92,41)"/>
<path d="M0 0 C0 0.66 0 1.32 0 2 C-0.99 2 -1.98 2 -3 2 C-3 2.99 -3 3.98 -3 5 C-4.65 5.33 -6.3 5.66 -8 6 C-8.66 4.68 -9.32 3.36 -10 2 C-6.49223216 0.39644899 -3.85645121 -0.22036864 0 0 Z " fill="#71AEDA" transform="translate(68,35)"/>
<path d="M0 0 C0.99 0 1.98 0 3 0 C2.4140625 6.15234375 2.4140625 6.15234375 2 8 C1.01 8.495 1.01 8.495 0 9 C-2.125 8.0625 -2.125 8.0625 -4 7 C-2.68 4.69 -1.36 2.38 0 0 Z " fill="#2A437F" transform="translate(118,86)"/>
<path d="M0 0 C-0.75 7.75 -0.75 7.75 -3 10 C-3.268125 9.195625 -3.53625 8.39125 -3.8125 7.5625 C-4.204375 6.716875 -4.59625 5.87125 -5 5 C-5.99 4.67 -6.98 4.34 -8 4 C-1.125 0 -1.125 0 0 0 Z " fill="#244D76" transform="translate(112,67)"/>
<path d="M0 0 C0.33 0 0.66 0 1 0 C1 3.63 1 7.26 1 11 C-0.65 11 -2.3 11 -4 11 C-3.34 10.34 -2.68 9.68 -2 9 C-4.475 8.01 -4.475 8.01 -7 7 C-7 6.67 -7 6.34 -7 6 C-5.02 6 -3.04 6 -1 6 C-0.67 4.02 -0.34 2.04 0 0 Z " fill="#495E6F" transform="translate(111,55)"/>
<path d="M0 0 C2.125 0.375 2.125 0.375 4 1 C2.61122646 4.35620271 1.08322035 6.07298728 -2 8 C-2.66 8 -3.32 8 -4 8 C-2.25 2.25 -2.25 2.25 0 0 Z " fill="#BA9953" transform="translate(69,56)"/>
<path d="M0 0 C0.66 0 1.32 0 2 0 C2 0.99 2 1.98 2 3 C2.70125 3.0825 3.4025 3.165 4.125 3.25 C7.65272947 4.17027725 10.06111614 5.88126977 13 8 C12.01 8.495 12.01 8.495 11 9 C8.96855359 8.06553465 6.96466413 7.06775224 5 6 C4.67 6.99 4.34 7.98 4 9 C4 7.35 4 5.7 4 4 C3.34 4 2.68 4 2 4 C1.67 4.66 1.34 5.32 1 6 C0 5 0 5 -0.0625 2.4375 C-0.041875 1.633125 -0.02125 0.82875 0 0 Z " fill="#27517E" transform="translate(79,32)"/>
<path d="M0 0 C1.44010481 0.25662245 2.8770687 0.53090821 4.3125 0.8125 C5.11300781 0.96332031 5.91351563 1.11414063 6.73828125 1.26953125 C9.23445587 2.07572236 10.32422106 3.02052002 12 5 C9.36 4.34 6.72 3.68 4 3 C3.67 3.99 3.34 4.98 3 6 C2.34 6 1.68 6 1 6 C1 5.01 1 4.02 1 3 C0.34 3 -0.32 3 -1 3 C-0.67 2.01 -0.34 1.02 0 0 Z " fill="#346CA6" transform="translate(80,29)"/>
<path d="M0 0 C-1.95585325 1.00484204 -3.91476237 2.00373805 -5.875 3 C-6.96554688 3.556875 -8.05609375 4.11375 -9.1796875 4.6875 C-12 6 -12 6 -14 6 C-14.33 5.01 -14.66 4.02 -15 3 C-12.22917166 0.22917166 -9.81929143 0.46903579 -6 0 C-3 -1 -3 -1 0 0 Z " fill="#F1EED9" transform="translate(57,26)"/>
<path d="M0 0 C0.99 0 1.98 0 3 0 C3 0.66 3 1.32 3 2 C3.75925781 2.04898438 4.51851562 2.09796875 5.30078125 2.1484375 C6.29464844 2.22320312 7.28851563 2.29796875 8.3125 2.375 C9.79169922 2.47941406 9.79169922 2.47941406 11.30078125 2.5859375 C14 3 14 3 17 5 C15.2709226 5.02725341 13.54171824 5.04650987 11.8125 5.0625 C10.36810547 5.07990234 10.36810547 5.07990234 8.89453125 5.09765625 C6.14423487 5.00486622 3.67520409 4.62111685 1 4 C0.67 2.68 0.34 1.36 0 0 Z " fill="#4C3A2E" transform="translate(58,124)"/>
<path d="M0 0 C1.65 0 3.3 0 5 0 C5 1.32 5 2.64 5 4 C3 5.75 3 5.75 1 7 C-1 4 -1 4 -0.625 1.8125 C-0.41875 1.214375 -0.2125 0.61625 0 0 Z " fill="#9B8753" transform="translate(105,108)"/>
<path d="M0 0 C-1.09068668 3.77545388 -1.9083091 6.47043472 -5 9 C-5.33 6.69 -5.66 4.38 -6 2 C-2.25 0 -2.25 0 0 0 Z " fill="#2F4F83" transform="translate(39,74)"/>
<path d="M0 0 C-1.35021826 4.41889613 -3.26115668 6.34345343 -7 9 C-7 6 -7 6 -6 4 C-5.34 4 -4.68 4 -4 4 C-4 3.34 -4 2.68 -4 2 C-4.99 1.67 -5.98 1.34 -7 1 C-4.53721199 -0.231394 -2.7204945 -0.07159196 0 0 Z " fill="#D7D198" transform="translate(32,40)"/>
<path d="M0 0 C4.40114397 0.50298788 6.71195019 2.08772731 10 5 C8.68 5 7.36 5 6 5 C5.67 5.66 5.34 6.32 5 7 C3.29115995 5.37660195 1.62553283 3.70680947 0 2 C0 1.34 0 0.68 0 0 Z " fill="#C4A265" transform="translate(98,24)"/>
<path d="M0 0 C2.0622048 -0.054348 4.12482816 -0.09294961 6.1875 -0.125 C7.33605469 -0.14820312 8.48460938 -0.17140625 9.66796875 -0.1953125 C12.91740372 -0.00484152 15.08660521 0.60639873 18 2 C12.437909 4.08578412 5.67578017 1.99326153 0 1 C0 0.67 0 0.34 0 0 Z " fill="#D7E1C5" transform="translate(72,21)"/>
<path d="M0 0 C0.66 0 1.32 0 2 0 C2.05437607 1.58294782 2.09296271 3.16644256 2.125 4.75 C2.14820312 5.63171875 2.17140625 6.5134375 2.1953125 7.421875 C1.99139502 10.1135858 1.36551721 11.69904974 0 14 C-1.33257403 4.58997722 -1.33257403 4.58997722 0 0 Z " fill="#22232D" transform="translate(81,90)"/>
<path d="M0 0 C0 0.33 0 0.66 0 1 C-3.3 1.33 -6.6 1.66 -10 2 C-10 2.99 -10 3.98 -10 5 C-11.32 5 -12.64 5 -14 5 C-14 3.68 -14 2.36 -14 1 C-9.23692563 0.04738513 -4.8333472 -0.08333357 0 0 Z " fill="#6E4628" transform="translate(48,86)"/>
<path d="M0 0 C2.125 0.9375 2.125 0.9375 4 2 C3.67 2.99 3.34 3.98 3 5 C0.69 5 -1.62 5 -4 5 C-2.25 1.125 -2.25 1.125 0 0 Z " fill="#CBA65A" transform="translate(95,66)"/>
<path d="M0 0 C1.98 0.495 1.98 0.495 4 1 C3.6875 3.375 3.6875 3.375 3 6 C2.01 6.66 1.02 7.32 0 8 C-0.33 7.67 -0.66 7.34 -1 7 C-0.71269945 4.66055264 -0.38063221 2.3260857 0 0 Z " fill="#CCBF7F" transform="translate(44,64)"/>
<path d="M0 0 C5.75 1.75 5.75 1.75 8 4 C7.34 4 6.68 4 6 4 C5.34 5.32 4.68 6.64 4 8 C3.34 8 2.68 8 2 8 C2 6.02 2 4.04 2 2 C1.34 2 0.68 2 0 2 C0 1.34 0 0.68 0 0 Z " fill="#3E68A2" transform="translate(84,38)"/>
<path d="M0 0 C-0.17625835 2.37948772 -0.69719773 3.70225849 -2.40234375 5.37890625 C-3.90649092 6.62115486 -5.45129851 7.81376056 -7 9 C-7.66 8.67 -8.32 8.34 -9 8 C-8.01 7.01 -7.02 6.02 -6 5 C-6.33 4.67 -6.66 4.34 -7 4 C-3.375 0 -3.375 0 0 0 Z " fill="#D2B572" transform="translate(43,30)"/>
<path d="M0 0 C1.27617188 0.02320312 2.55234375 0.04640625 3.8671875 0.0703125 C5.78917969 0.09738281 5.78917969 0.09738281 7.75 0.125 C9.23113281 0.15980469 9.23113281 0.15980469 10.7421875 0.1953125 C8.29639573 2.50456735 7.14776616 3.18533064 3.7265625 3.26953125 C2.65921875 3.14191406 1.591875 3.01429687 0.4921875 2.8828125 C-0.58546875 2.76292969 -1.663125 2.64304688 -2.7734375 2.51953125 C-3.59328125 2.41253906 -4.413125 2.30554687 -5.2578125 2.1953125 C-3.2578125 0.1953125 -3.2578125 0.1953125 0 0 Z " fill="#77B8E2" transform="translate(61.2578125,29.8046875)"/>
<path d="M0 0 C0 0.66 0 1.32 0 2 C-9.41002278 5.44419134 -9.41002278 5.44419134 -14 5 C-11.96470413 2.96470413 -10.76582618 2.3615728 -8.125 1.375 C-7.10792969 0.98441406 -7.10792969 0.98441406 -6.0703125 0.5859375 C-4 0 -4 0 0 0 Z " fill="#788783" transform="translate(62,25)"/>
<path d="M0 0 C0.66 0 1.32 0 2 0 C2.33 0.99 2.66 1.98 3 3 C2.67 3.33 2.34 3.66 2 4 C3.65 4.33 5.3 4.66 7 5 C7 5.33 7 5.66 7 6 C3.7 6 0.4 6 -3 6 C-1.125 1.125 -1.125 1.125 0 0 Z " fill="#A08157" transform="translate(61,116)"/>
<path d="M0 0 C2.5625 2.25 2.5625 2.25 5 5 C4.8125 7.3125 4.8125 7.3125 4 9 C3.67 8.34 3.34 7.68 3 7 C2.01 6.67 1.02 6.34 0 6 C0 5.01 0 4.02 0 3 C-0.66 3 -1.32 3 -2 3 C-2 2.34 -2 1.68 -2 1 C-1.34 0.67 -0.68 0.34 0 0 Z " fill="#A77C47" transform="translate(26,92)"/>
<path d="M0 0 C0.33 0 0.66 0 1 0 C1.1953125 6.0546875 1.1953125 6.0546875 1 8 C0.34 8.66 -0.32 9.32 -1 10 C-2.5 8.625 -2.5 8.625 -4 7 C-4 6.34 -4 5.68 -4 5 C-3.34 5 -2.68 5 -2 5 C-1.34 3.35 -0.68 1.7 0 0 Z " fill="#447097" transform="translate(33,85)"/>
<path d="M0 0 C0.33 0.66 0.66 1.32 1 2 C0.67 2.99 0.34 3.98 0 5 C-0.66 5 -1.32 5 -2 5 C-2 5.66 -2 6.32 -2 7 C-4.31 7.33 -6.62 7.66 -9 8 C-9 7.34 -9 6.68 -9 6 C-8.01 6 -7.02 6 -6 6 C-5.67 5.01 -5.34 4.02 -5 3 C-2.4375 1.3125 -2.4375 1.3125 0 0 Z " fill="#5E93B9" transform="translate(44,38)"/>
<path d="M0 0 C4.39683488 1.19913678 7.09840934 2.4288115 10 6 C10 6.66 10 7.32 10 8 C9.01 8 8.02 8 7 8 C7 7.34 7 6.68 7 6 C6.401875 5.7525 5.80375 5.505 5.1875 5.25 C2.71352479 3.83629988 1.56629745 2.34944617 0 0 Z " fill="#2B6FAE" transform="translate(92,34)"/>
<path d="M0 0 C0 3 0 3 -1.57421875 4.75390625 C-8.592641 10.76043028 -8.592641 10.76043028 -13 12 C-8.87675353 7.74790208 -4.48717034 3.86364295 0 0 Z " fill="#EFDBA5" transform="translate(107,98)"/>
<path d="M0 0 C1.65 1.32 3.3 2.64 5 4 C3.1875 5.5625 3.1875 5.5625 1 7 C0.01 6.67 -0.98 6.34 -2 6 C-2 4.35 -2 2.7 -2 1 C-1.34 0.67 -0.68 0.34 0 0 Z " fill="#325582" transform="translate(86,98)"/>
<path d="M0 0 C5.75 2.625 5.75 2.625 8 6 C6.35 6.33 4.7 6.66 3 7 C0 2.25 0 2.25 0 0 Z " fill="#8C6424" transform="translate(42,50)"/>
<path d="M0 0 C0 0.66 0 1.32 0 2 C-4.455 2.495 -4.455 2.495 -9 3 C-9.33 2.01 -9.66 1.02 -10 0 C-6.42355152 -1.2380014 -3.66305234 -0.74926071 0 0 Z " fill="#C1AE7B" transform="translate(64,19)"/>
<path d="M0 0 C4.21878192 -0.19622241 7.17010894 0.19769832 11 2 C10.67 2.66 10.34 3.32 10 4 C6.7 3.34 3.4 2.68 0 2 C0 1.34 0 0.68 0 0 Z " fill="#3565CA" transform="translate(42,115)"/>
<path d="M0 0 C1.12894876 0.93274109 2.25300876 1.87140122 3.375 2.8125 C4.00148438 3.33457031 4.62796875 3.85664062 5.2734375 4.39453125 C7 6 7 6 9 9 C5.12270528 8.42558597 2.78480942 6.70745361 0 4 C0 2.68 0 1.36 0 0 Z " fill="#866346" transform="translate(62,88)"/>
<path d="M0 0 C2.31 0 4.62 0 7 0 C6.319375 1.0828125 6.319375 1.0828125 5.625 2.1875 C4.14505642 4.74894081 3.02782461 7.23277989 2 10 C1.67 10 1.34 10 1 10 C0.67 6.7 0.34 3.4 0 0 Z " fill="#9C7838" transform="translate(75,72)"/>
<path d="M0 0 C3.05729491 2.2646629 6.03716687 4.61327331 9 7 C5.71023192 8.09658936 4.28696233 7.79953138 1 7 C0.67 4.69 0.34 2.38 0 0 Z " fill="#CEBD65" transform="translate(47,63)"/>
<path d="M0 0 C4.46839215 -0.21278058 7.82262526 0.40861915 12 2 C12 2.33 12 2.66 12 3 C10.576875 3.12375 10.576875 3.12375 9.125 3.25 C5.89538209 3.65074923 5.89538209 3.65074923 4.625 6.0625 C4.41875 6.701875 4.2125 7.34125 4 8 C4 6.02 4 4.04 4 2 C2.68 1.34 1.36 0.68 0 0 Z " fill="#1C394D" transform="translate(74,26)"/>
<path d="M0 0 C0 3 0 3 -2.25 5.5 C-4.43541108 7.48673735 -6.58854412 9.30304957 -9 11 C-9.66 10.67 -10.32 10.34 -11 10 C-5.555 5.05 -5.555 5.05 0 0 Z " fill="#DBBF90" transform="translate(108,103)"/>
<path d="M0 0 C1.99097846 2.98646769 2.94124926 5.59687262 4 9 C3.01 9 2.02 9 1 9 C0.67 8.01 0.34 7.02 0 6 C-0.99 6 -1.98 6 -3 6 C-1.125 1.125 -1.125 1.125 0 0 Z " fill="#B49F7A" transform="translate(107,84)"/>
<path d="M0 0 C4.29 0 8.58 0 13 0 C13 0.33 13 0.66 13 1 C12.030625 1.12375 11.06125 1.2475 10.0625 1.375 C8.5465625 1.684375 8.5465625 1.684375 7 2 C6.67 2.66 6.34 3.32 6 4 C1.125 2.25 1.125 2.25 0 0 Z " fill="#A17536" transform="translate(67,66)"/>
<path d="M0 0 C2.64 0.33 5.28 0.66 8 1 C8 2.32 8 3.64 8 5 C7.01 5 6.02 5 5 5 C5 4.34 5 3.68 5 3 C2.03 2.505 2.03 2.505 -1 2 C-0.67 1.34 -0.34 0.68 0 0 Z " fill="#D5D08B" transform="translate(72,59)"/>
<path d="M0 0 C0.99 0.495 0.99 0.495 2 1 C2 1.99 2 2.98 2 4 C2.66 4.33 3.32 4.66 4 5 C4 6.98 4 8.96 4 11 C3.01 11 2.02 11 1 11 C0.67 7.37 0.34 3.74 0 0 Z " fill="#AD8D57" transform="translate(111,43)"/>
<path d="M0 0 C4.0369867 1.79421631 6.64480474 3.20551875 9 7 C5 7 5 7 3.25 5.625 C2 4 2 4 2 2 C1.34 2 0.68 2 0 2 C0 1.34 0 0.68 0 0 Z " fill="#3889C4" transform="translate(87,32)"/>
<path d="M0 0 C0 0.99 0 1.98 0 3 C-4.05431692 4.15837626 -6.21812119 3.83691257 -10 2 C-10 1.67 -10 1.34 -10 1 C-6.59437148 0.22157062 -3.49234244 -0.09978121 0 0 Z " fill="#E9D99F" transform="translate(66,21)"/>
<path d="M0 0 C0.99 0.33 1.98 0.66 3 1 C3 1.99 3 2.98 3 4 C3.99 4.33 4.98 4.66 6 5 C2.37673261 6.2077558 1.35853631 5.54311128 -2 4 C-1.34 2.68 -0.68 1.36 0 0 Z " fill="#A0844A" transform="translate(105,89)"/>
<path d="M0 0 C1.32 0 2.64 0 4 0 C4 1.98 4 3.96 4 6 C3.34 6 2.68 6 2 6 C1.34 6.66 0.68 7.32 0 8 C0 5.36 0 2.72 0 0 Z " fill="#386AB3" transform="translate(118,70)"/>
<path d="M0 0 C0.66 0.33 1.32 0.66 2 1 C2.4140625 3.28515625 2.4140625 3.28515625 2.625 6.0625 C2.69976562 6.98160156 2.77453125 7.90070312 2.8515625 8.84765625 C2.92503906 9.91306641 2.92503906 9.91306641 3 11 C1.68 10.67 0.36 10.34 -1 10 C-0.73958333 7.98177083 -0.47916667 5.96354167 -0.21875 3.9453125 C0.0372485 1.99501656 0.0372485 1.99501656 0 0 Z " fill="#30649D" transform="translate(107,50)"/>
<path d="M0 0 C1.65 0 3.3 0 5 0 C5 0.66 5 1.32 5 2 C-0.2734375 5.22265625 -0.2734375 5.22265625 -2 6 C-2.66 5.67 -3.32 5.34 -4 5 C-3.34 4.01 -2.68 3.02 -2 2 C-1.34 2 -0.68 2 0 2 C0 1.34 0 0.68 0 0 Z " fill="#AAE3FC" transform="translate(52,34)"/>
<path d="M0 0 C1.98 0.66 3.96 1.32 6 2 C5.67 2.99 5.34 3.98 5 5 C3 5 3 5 1.375 3.5 C0.92125 3.005 0.4675 2.51 0 2 C0 2.66 0 3.32 0 4 C-1.65 4.66 -3.3 5.32 -5 6 C-3.35 4.02 -1.7 2.04 0 0 Z " fill="#846A36" transform="translate(102,94)"/>
<path d="M0 0 C1.32 0 2.64 0 4 0 C3.67 2.31 3.34 4.62 3 7 C1.68 6.34 0.36 5.68 -1 5 C-0.67 3.35 -0.34 1.7 0 0 Z " fill="#385B8C" transform="translate(54,94)"/>
<path d="M0 0 C2.64 0 5.28 0 8 0 C6.68 0.33 5.36 0.66 4 1 C4 1.66 4 2.32 4 3 C2.02 3.66 0.04 4.32 -2 5 C-1.34 3.35 -0.68 1.7 0 0 Z " fill="#B18E40" transform="translate(86,64)"/>
<path d="M0 0 C2.56616632 3.84924948 2.55097676 6.4349304 3 11 C1.68 10.34 0.36 9.68 -1 9 C-0.67 6.03 -0.34 3.06 0 0 Z " fill="#E8E5C1" transform="translate(61,53)"/>
<path d="M0 0 C5.445 1.485 5.445 1.485 11 3 C11 3.66 11 4.32 11 5 C6.94393835 4.53199289 3.53411321 4.12046792 0 2 C0 1.34 0 0.68 0 0 Z " fill="#BDA455" transform="translate(78,55)"/>
<path d="M0 0 C0 0.99 0 1.98 0 3 C-0.639375 3.61875 -1.27875 4.2375 -1.9375 4.875 C-4.27990815 7.28839022 -4.63515416 8.7163874 -5 12 C-5.99 11.67 -6.98 11.34 -8 11 C-5.9785845 6.42521756 -3.68006822 3.38168431 0 0 Z " fill="#DCE4C6" transform="translate(70,36)"/>
<path d="M0 0 C2.91517292 1.07401108 4.77810176 1.77810176 7 4 C5.35 3.67 3.7 3.34 2 3 C1.67 4.65 1.34 6.3 1 8 C0.67 8 0.34 8 0 8 C0 5.36 0 2.72 0 0 Z " fill="#4C4A51" transform="translate(35,108)"/>
<path d="M0 0 C4.75 -0.125 4.75 -0.125 7 1 C6.34 2.32 5.68 3.64 5 5 C4.01 4.67 3.02 4.34 2 4 C2 3.34 2 2.68 2 2 C1.34 2 0.68 2 0 2 C0 1.34 0 0.68 0 0 Z " fill="#246092" transform="translate(96,88)"/>
<path d="M0 0 C2.475 0.99 2.475 0.99 5 2 C5.33 1.34 5.66 0.68 6 0 C6.66 0 7.32 0 8 0 C8 1.65 8 3.3 8 5 C5 5 5 5 2.3125 2.5 C1.549375 1.675 0.78625 0.85 0 0 Z " fill="#E0D89B" transform="translate(53,56)"/>
<path d="M0 0 C1.40907283 2.81814566 0.50872691 4.17277204 -0.4375 7.125 C-0.72496094 8.03507812 -1.01242188 8.94515625 -1.30859375 9.8828125 C-1.53675781 10.58148438 -1.76492187 11.28015625 -2 12 C-2.93423645 8.98968256 -3.04449911 8.13349732 -2 5 C-2.66 4.67 -3.32 4.34 -4 4 C-3.34 4 -2.68 4 -2 4 C-1.34 2.68 -0.68 1.36 0 0 Z " fill="#EAE3B5" transform="translate(71,41)"/>
<path d="M0 0 C0.33 0 0.66 0 1 0 C1 2.97 1 5.94 1 9 C-1.475 8.01 -1.475 8.01 -4 7 C-2.92598892 4.08482708 -2.22189824 2.22189824 0 0 Z " fill="#D9C070" transform="translate(74,42)"/>
<path d="M0 0 C1.32 0.33 2.64 0.66 4 1 C4 1.66 4 2.32 4 3 C3.34 3 2.68 3 2 3 C1.34 4.32 0.68 5.64 0 7 C-0.99 7 -1.98 7 -3 7 C-2.01 4.69 -1.02 2.38 0 0 Z " fill="#587F8D" transform="translate(24,41)"/>
<path d="M0 0 C3.08089673 2.77280706 4.68775452 5.06326356 6 9 C3.525 8.01 3.525 8.01 1 7 C0.67 4.69 0.34 2.38 0 0 Z " fill="#A68455" transform="translate(113,34)"/>
<path d="M0 0 C1.32 0.66 2.64 1.32 4 2 C4 3.65 4 5.3 4 7 C2.68 6.67 1.36 6.34 0 6 C0 4 0 2 0 0 Z " fill="#C5A25F" transform="translate(104,32)"/>
<path d="M0 0 C0.66 0 1.32 0 2 0 C1.01 2.97 0.02 5.94 -1 9 C-1.99 9 -2.98 9 -4 9 C-2.68 6.03 -1.36 3.06 0 0 Z " fill="#3F629D" transform="translate(122,86)"/>
<path d="M0 0 C1.32 0.66 2.64 1.32 4 2 C4 2.66 4 3.32 4 4 C4.66 4.33 5.32 4.66 6 5 C5.34 5 4.68 5 4 5 C3.67 5.66 3.34 6.32 3 7 C2.67 6.01 2.34 5.02 2 4 C1.01 3.67 0.02 3.34 -1 3 C-0.67 2.01 -0.34 1.02 0 0 Z " fill="#1E3B61" transform="translate(56,90)"/>
<path d="M0 0 C0.66 0 1.32 0 2 0 C2.66 1.32 3.32 2.64 4 4 C4.66 4 5.32 4 6 4 C6 5.65 6 7.3 6 9 C5.34 9 4.68 9 4 9 C4 8.34 4 7.68 4 7 C3.34 7 2.68 7 2 7 C1.34 4.69 0.68 2.38 0 0 Z " fill="#A07851" transform="translate(67,83)"/>
<path d="M0 0 C-2.71733757 1.81155838 -4.90595092 3.01896005 -8 4 C-10.16015625 3.55078125 -10.16015625 3.55078125 -12 3 C-10.75823305 2.29773859 -9.50614401 1.61370891 -8.25 0.9375 C-7.20585938 0.36322266 -7.20585938 0.36322266 -6.140625 -0.22265625 C-3.63859372 -1.1312406 -2.4667645 -0.88336837 0 0 Z " fill="#663F2F" transform="translate(103,70)"/>
<path d="M0 0 C-1.75 2.0625 -1.75 2.0625 -4 4 C-6.25 3.75 -6.25 3.75 -8 3 C-8 2.34 -8 1.68 -8 1 C-5.29120665 -0.35439668 -2.99066732 -0.06501451 0 0 Z " fill="#3B3C36" transform="translate(112,66)"/>
<path d="M0 0 C2.97 0 5.94 0 9 0 C7.68 1.32 6.36 2.64 5 4 C2 3 2 3 0 0 Z " fill="#D8C681" transform="translate(52,67)"/>
<path d="M0 0 C5.75 -0.125 5.75 -0.125 8 1 C8 1.66 8 2.32 8 3 C5.03 2.67 2.06 2.34 -1 2 C-0.67 1.34 -0.34 0.68 0 0 Z " fill="#B37A34" transform="translate(50,61)"/>
<path d="M0 0 C1.74627478 2.61941217 2.38722388 4.03824877 3 7 C1.35 7 -0.3 7 -2 7 C-1.34 5.35 -0.68 3.7 0 2 C-0.99 1.67 -1.98 1.34 -3 1 C-2.01 0.67 -1.02 0.34 0 0 Z " fill="#CAB263" transform="translate(89,56)"/>
<path d="M0 0 C-1.8125 2 -1.8125 2 -4 4 C-4.99 4 -5.98 4 -7 4 C-7 2.68 -7 1.36 -7 0 C-2.25 -1.125 -2.25 -1.125 0 0 Z " fill="#654B21" transform="translate(90,120)"/>
<path d="M0 0 C2.4375 1.1875 2.4375 1.1875 5 3 C5.8125 5.6875 5.8125 5.6875 6 8 C3 6.25 3 6.25 0 4 C0 2.68 0 1.36 0 0 Z " fill="#98764F" transform="translate(73,99)"/>
<path d="M0 0 C4.455 0.99 4.455 0.99 9 2 C8.67 2.99 8.34 3.98 8 5 C7.01 5 6.02 5 5 5 C5 4.34 5 3.68 5 3 C3.35 2.67 1.7 2.34 0 2 C0 1.34 0 0.68 0 0 Z " fill="#C4A76C" transform="translate(103,93)"/>
<path d="M0 0 C2.475 0.495 2.475 0.495 5 1 C5 1.99 5 2.98 5 4 C4.34 4 3.68 4 3 4 C1.36323743 5.9600281 1.36323743 5.9600281 0 8 C0 5.36 0 2.72 0 0 Z " fill="#957A41" transform="translate(114,60)"/>
<path d="M0 0 C2.475 0.495 2.475 0.495 5 1 C4.01 1.495 4.01 1.495 3 2 C3 2.99 3 3.98 3 5 C4.65 5 6.3 5 8 5 C6.02 5.99 6.02 5.99 4 7 C1.49962266 4.82575883 0.56371414 3.26954202 0 0 Z " fill="#CFBE80" transform="translate(90,57)"/>
<path d="M0 0 C2 3 2 3 1.875 5.0625 C1 7 1 7 -3 9 C-2.01 6.03 -1.02 3.06 0 0 Z " fill="#C4B875" transform="translate(70,49)"/>
<path d="M0 0 C-0.33 0.66 -0.66 1.32 -1 2 C-3.64 2 -6.28 2 -9 2 C-9 1.34 -9 0.68 -9 0 C-3.375 -1.125 -3.375 -1.125 0 0 Z " fill="#997835" transform="translate(79,111)"/>
<path d="M0 0 C1.32 0.66 2.64 1.32 4 2 C3.01 2.495 3.01 2.495 2 3 C1.67 3.99 1.34 4.98 1 6 C0.01 5.67 -0.98 5.34 -2 5 C-1.34 3.35 -0.68 1.7 0 0 Z " fill="#A27F4A" transform="translate(34,102)"/>
<path d="M0 0 C-0.99 0.99 -1.98 1.98 -3 3 C-4.65 1.68 -6.3 0.36 -8 -1 C-3.375 -2.25 -3.375 -2.25 0 0 Z " fill="#18437A" transform="translate(54,98)"/>
<path d="M0 0 C0.91058531 3.07322544 1.08886184 5.80097361 1 9 C-0.32 8.67 -1.64 8.34 -3 8 C-2.37240135 5.07120629 -1.41377341 2.63904371 0 0 Z " fill="#52505C" transform="translate(113,84)"/>
<path d="M0 0 C0.66 0 1.32 0 2 0 C2 1.98 2 3.96 2 6 C0.68 6 -0.64 6 -2 6 C-1.49396008 3.83125748 -1.00016187 2.00032373 0 0 Z " fill="#B08457" transform="translate(115,66)"/>
<path d="M0 0 C0.66 0 1.32 0 2 0 C1.67 2.64 1.34 5.28 1 8 C0.34 8 -0.32 8 -1 8 C-1.04241723 5.66705225 -1.04092937 3.33297433 -1 1 C-0.67 0.67 -0.34 0.34 0 0 Z " fill="#2767A3" transform="translate(28,58)"/>
<path d="M0 0 C0.33 0 0.66 0 1 0 C1 2.97 1 5.94 1 9 C-0.32 8.67 -1.64 8.34 -3 8 C-2.01 5.36 -1.02 2.72 0 0 Z " fill="#5076A9" transform="translate(18,54)"/>
<path d="M0 0 C-4.95 2.475 -4.95 2.475 -10 5 C-8 1 -8 1 -6.125 -0.3125 C-4 -1 -4 -1 0 0 Z " fill="#D7CEB1" transform="translate(51,23)"/>
<path d="M0 0 C2.97 0.33 5.94 0.66 9 1 C5.5647952 3.29013653 4.014669 3.17842973 0 3 C0 2.01 0 1.02 0 0 Z " fill="#946E3D" transform="translate(67,112)"/>
<path d="M0 0 C1.65 0 3.3 0 5 0 C5.33 1.65 5.66 3.3 6 5 C4.68 5 3.36 5 2 5 C1.34 3.35 0.68 1.7 0 0 Z " fill="#C69F5D" transform="translate(89,104)"/>
<path d="M0 0 C0.99 0 1.98 0 3 0 C3.33 0.99 3.66 1.98 4 3 C3.34 3 2.68 3 2 3 C1.67 3.66 1.34 4.32 1 5 C1 4.34 1 3.68 1 3 C-0.98 3.99 -0.98 3.99 -3 5 C-1.125 1.125 -1.125 1.125 0 0 Z " fill="#3365A6" transform="translate(95,90)"/>
<path d="M0 0 C0.66 0.33 1.32 0.66 2 1 C1.67 3.31 1.34 5.62 1 8 C-1 6 -1 6 -1.1875 3.4375 C-1 1 -1 1 0 0 Z " fill="#826941" transform="translate(126,68)"/>
<path d="M0 0 C6.75 0.75 6.75 0.75 9 3 C2.25 3.125 2.25 3.125 0 2 C0 1.34 0 0.68 0 0 Z " fill="#D8CC95" transform="translate(80,54)"/>
<path d="M0 0 C0.66 0 1.32 0 2 0 C2.6875 2.8125 2.6875 2.8125 3 6 C2.01 6.99 1.02 7.98 0 9 C0 6.03 0 3.06 0 0 Z " fill="#F3EDDC" transform="translate(64,54)"/>
<path d="M0 0 C3.81538462 2.46153846 3.81538462 2.46153846 4.75 5.1875 C4.8325 5.785625 4.915 6.38375 5 7 C3.68 7 2.36 7 1 7 C0.67 4.69 0.34 2.38 0 0 Z " fill="#2F3B48" transform="translate(67,96)"/>
<path d="M0 0 C1.5625 1.125 1.5625 1.125 3 3 C2.6875 6.1875 2.6875 6.1875 2 9 C1.67 8.34 1.34 7.68 1 7 C0.34 7 -0.32 7 -1 7 C-0.67 4.69 -0.34 2.38 0 0 Z " fill="#AB8F67" transform="translate(77,95)"/>
<path d="M0 0 C0.99 0.33 1.98 0.66 3 1 C2.67 2.65 2.34 4.3 2 6 C1.34 6 0.68 6 0 6 C-1.125 2.25 -1.125 2.25 0 0 Z " fill="#D2BC77" transform="translate(73,72)"/>
<path d="M0 0 C-1.65 1.32 -3.3 2.64 -5 4 C-5.66 3.67 -6.32 3.34 -7 3 C-6.67 2.01 -6.34 1.02 -6 0 C-3.50907189 -1.24546405 -2.58919267 -0.7767578 0 0 Z " fill="#997228" transform="translate(90,69)"/>
<path d="M0 0 C0.66 0 1.32 0 2 0 C1.67 1.32 1.34 2.64 1 4 C0.34 4 -0.32 4 -1 4 C-1.66 5.32 -2.32 6.64 -3 8 C-2.25 2.25 -2.25 2.25 0 0 Z " fill="#CAB574" transform="translate(25,48)"/>
<path d="M0 0 C2.52259061 1.97420135 2.9929808 2.96745642 3.6875 6.1875 C3.790625 7.115625 3.89375 8.04375 4 9 C3.01 8.67 2.02 8.34 1 8 C0.67 5.36 0.34 2.72 0 0 Z " fill="#514B2D" transform="translate(79,45)"/>
</svg>
